<svg xmlns="http://www.w3.org/2000/svg" xmlns:xlink="http://www.w3.org/1999/xlink" version="1.1" id="Layer_1" x="0px" y="0px" viewBox="0 0 436.2 99.6" style="enable-background:new 0 0 436.2 99.6;" xml:space="preserve" data-tag-assistant-present="" data-tag-assistant-prod-present="">
<style type="text/css">
	.st0{fill:#FFFFFF;}
	.st1{fill-rule:evenodd;clip-rule:evenodd;fill:#FFFFFF;}
	.st2{fill:#36B6E9;}
	.st3{fill-rule:evenodd;clip-rule:evenodd;fill:#868587;}
	.st4{fill:#868587;}
</style>
<path class="st0" d="M0,0.4v99.2h96.3V0.4H0z M29.7,51.9L11.5,90.6H7.2l21.1-44.4l52.9,36.8l-3.6-6.8L30.1,43.7l4.3-9.3l36.1,25.8  l-4.3-7.5L35.8,31.9L47.3,7.6l19,38.3l-6.4-4.7l-12.5-25l-7.2,14.3l29,20.7l8.6,17.5L35.8,39.4l-1.4,3.2l45.4,31.1l9.3,18.6  L29.7,51.9z"/>
<g>
	<path class="st0" d="M264.6,50.4c1.9-4.3,2.7-8.8,2.7-13.6c0-4.7-0.8-9.3-2.7-13.6c-1.8-4.1-4.3-7.9-7.5-11.1   c-3.2-3.2-6.9-5.7-11-7.5c-4.3-1.8-8.9-2.5-13.7-2.5c-4.7,0-9.3,0.8-13.6,2.5c-4.1,1.8-7.9,4.3-11.1,7.5c-3.2,3.3-5.7,7-7.4,11.1   c-1.9,4.3-2.8,8.9-2.8,13.6c0,4.8,0.9,9.3,2.8,13.6c1.7,4.2,4.2,8,7.5,11.1c3.2,3.2,6.9,5.7,11,7.5c4.3,1.8,8.9,2.6,13.6,2.6   c4.8,0,9.4-0.8,13.7-2.6c3.8-1.6,7.2-3.9,10.2-6.7l9.7,9.7l5.6,0.1l-12.6-12.6C261.2,56.8,263.1,53.7,264.6,50.4z M232.4,68.1   c-17.1,0-31.2-14-31.2-31.2c0-17.2,14-31.2,31.2-31.2c17.2,0,31.2,14,31.2,31.2c0,7.6-2.7,14.6-7.3,20.1l-19.6-19.5l-2.7,2.7   l19.6,19.6C248,64.8,240.6,68.1,232.4,68.1z"/>
	<path class="st0" d="M343.8,47.4c0,12.5-10.3,22.8-22.8,22.8c-12.5,0-22.7-10.3-22.7-22.8V2.3h-3.9v45.1c0,7.2,2.7,13.8,7.8,18.8   c5,5.1,11.7,7.7,18.8,7.7c7.2,0,13.8-2.6,18.9-7.7c5-5,7.8-11.8,7.8-18.8V2.3h-3.9V47.4z"/>
	<path class="st0" d="M144.7,0L144.7,0L144.7,0l-1.9,3.9l-33.9,70.9h3.7l14.2-29.7h36.2l14.6,29.7h3.7L146.5,3.9L144.7,0z    M128.6,41.4l16.1-33.7l16.5,33.7H128.6z"/>
	<path class="st0" d="M401.4,3.9L399.6,0l0,0.1l0-0.1l-1.8,3.9l-33.9,70.9h3.7l14.2-29.7H418l14.6,29.7h3.7L401.4,3.9z M383.5,41.4   l16.1-33.7l16.5,33.7H383.5z"/>
</g>
<g>
	<path class="st1" d="M153.1,92.3h-43.5c-0.3,0-0.6,0.3-0.6,0.6c0,0.3,0.3,0.6,0.6,0.6h43.5V92.3z"/>
	<path class="st1" d="M392.1,92.3h43.5c0.3,0,0.6,0.3,0.6,0.6c0,0.3-0.3,0.6-0.6,0.6h-43.5V92.3z"/>
</g>
<g>
	<path class="st0" d="M170,99.1c-0.5,0-0.9-0.4-0.9-0.8V87.6c0-0.4,0.4-0.8,0.9-0.8h4.2c3.9,0,5.8,3.1,5.8,6.2   c0,3.1-1.9,6.2-5.8,6.2H170z M170.5,97.8h3.7c2.9,0,4.4-2.5,4.4-4.9s-1.5-4.9-4.4-4.9h-3.7V97.8z"/>
	<path class="st0" d="M188.9,97.8h7.6c0.8,0,0.9,1.3,0,1.3h-8.1c-0.5,0-0.9-0.4-0.9-0.9V87.6c0-0.4,0.3-0.8,0.9-0.8h8.2   c0.8,0,0.8,1.2,0,1.2h-7.6v4.4h7.3c0.8,0,0.8,1.2,0,1.2h-7.3V97.8z"/>
	<path class="st0" d="M203.6,87.5c-0.4-0.8,1-1.4,1.4-0.5l5,9.9l4.9-9.9c0.3-0.8,1.6-0.4,1.3,0.5l-5.6,11.3c-0.3,0.5-1,0.6-1.3-0.1   L203.6,87.5z"/>
	<path class="st0" d="M224.6,97.8h7.6c0.8,0,0.9,1.3,0,1.3h-8.1c-0.5,0-0.9-0.4-0.9-0.9V87.6c0-0.4,0.3-0.8,0.9-0.8h8.2   c0.8,0,0.8,1.2,0,1.2h-7.6v4.4h7.3c0.8,0,0.8,1.2,0,1.2h-7.3V97.8z"/>
	<path class="st0" d="M241.3,99.1c-0.5,0-0.7-0.3-0.7-0.7V87.3c0-0.9,1.4-0.9,1.4,0v10.5h7.2c1,0,1,1.3,0,1.3H241.3z"/>
	<path class="st0" d="M255.2,92.7c0-3,2.1-5.6,5.1-6.1c0.7-0.1,1.4-0.1,2.1,0c3,0.5,5.3,2.9,5.3,6.1c0,4-2.9,6.6-6.2,6.6   C258,99.3,255.2,96.8,255.2,92.7z M256.7,92.8c0,3.2,2.1,5.2,4.8,5.2c2.6,0,4.8-1.9,4.8-5.2c0-2.5-1.6-4.5-4-4.9   c-0.6-0.1-1.1-0.1-1.7,0C258.2,88.3,256.7,90.1,256.7,92.8z"/>
	<path class="st0" d="M276.8,95.4v3.1c0,0.9-1.4,0.9-1.4,0V87.4c0-0.4,0.3-0.7,0.7-0.7h4.2c3.3,0,4.9,2.2,4.9,4.5   c0,2.3-1.6,4.2-5,4.2H276.8z M276.8,94.2h3.5c2.6,0,3.6-1.5,3.6-3c0-1.6-1.3-3.2-3.5-3.2h-3.5V94.2z"/>
	<path class="st0" d="M303.6,87.1c0.4-0.7,1.3-0.5,1.3,0.3v11.1c0,0.9-1.4,0.9-1.4,0v-8.8l-3.9,6.2c-0.3,0.6-1,0.6-1.3,0l-3.9-6.2   v8.8c0,0.9-1.4,0.9-1.4,0V87.4c0-0.8,0.9-1,1.3-0.3l4.7,7.4L303.6,87.1z"/>
	<path class="st0" d="M314.8,97.8h7.6c0.8,0,0.9,1.3,0,1.3h-8.1c-0.5,0-0.9-0.4-0.9-0.9V87.6c0-0.4,0.3-0.8,0.9-0.8h8.2   c0.8,0,0.8,1.2,0,1.2h-7.6v4.4h7.3c0.8,0,0.8,1.2,0,1.2h-7.3V97.8z"/>
	<path class="st0" d="M339.5,87.2c0-0.8,1.5-0.9,1.5,0v11.1c0,1-1.3,1.1-1.7,0.4L332,89l0.2,2.7v6.8c0,0.9-1.5,1-1.5,0V87.4   c0-1,1.1-1.1,1.6-0.4l7.4,10l-0.2-2.9V87.2z"/>
	<path class="st0" d="M358.2,86.8c0.9,0,0.9,1.3,0,1.3h-4.3c0,3.5,0,7,0,10.5c0,0.5-0.4,0.7-0.7,0.7s-0.7-0.2-0.7-0.7V88.1h-4.3   c-0.9,0-0.9-1.3,0-1.3H358.2z"/>
	<path class="st0" d="M366,96c0.5,1.6,2.7,2,4.2,2c1.6,0,4.2-0.5,4.2-2.5c0-1.7-2-1.8-4.2-2c-2.7-0.2-5.5-0.5-5.5-3.3   c0-2.6,2.9-3.7,5.3-3.7c2,0,4.6,0.5,5.4,2.7c0.3,0.8-1,1.1-1.3,0.5c-0.6-1.5-2.7-1.7-4-1.7c-1.3,0-3.8,0.5-3.8,2.3   c0,1.7,1.9,1.9,4.2,2c2.7,0.2,5.5,0.4,5.5,3.3c0,3-3.3,3.9-5.7,3.9c-2,0-5-0.7-5.6-3C364.3,95.5,365.8,95.2,366,96z"/>
</g>
</svg>