<?xml version="1.0" encoding="UTF-8"?>
<svg version="1.1" xmlns="http://www.w3.org/2000/svg" width="500" height="220">
<path d="M0 0 C165 0 330 0 500 0 C500 72.6 500 145.2 500 220 C335 220 170 220 0 220 C0 147.4 0 74.8 0 0 Z " fill="#FEFEFE" transform="translate(0,0)"/>
<path d="M0 0 C4.4240904 2.04819 7.07663651 4.62896019 9.3046875 9.01953125 C11.55219863 15.42115004 9.98380674 21.03718451 7.36328125 27.0546875 C5.55243007 29.63865279 3.85367778 30.66719347 1 32 C-3.65608942 32.75199291 -8.70871658 33.10402184 -13.04296875 31.015625 C-16.89443823 27.93444942 -18.79196879 24.85051019 -19.3359375 20.01171875 C-19.41690894 13.12104883 -19.39333959 8.46198976 -15 3 C-10.71261759 -0.90908396 -5.50508851 -0.7776048 0 0 Z " fill="#FAFAFA" transform="translate(351,115)"/>
<path d="M0 0 C6.74080425 5.52650334 12.8071129 11.69449559 18.9375 17.875 C20.01343727 18.95596274 21.08960731 20.03669383 22.16601562 21.1171875 C24.78047583 23.74171106 27.39009258 26.37091775 30 29 C30.33 20.09 30.66 11.18 31 2 C32.98 2 34.96 2 37 2 C37 16.19 37 30.38 37 45 C32.77778161 41.38095567 28.82555739 37.94860025 24.94140625 34.0390625 C24.06162109 33.15605469 23.18183594 32.27304688 22.27539062 31.36328125 C21.38013672 30.45964844 20.48488281 29.55601562 19.5625 28.625 C18.64017578 27.69816406 17.71785156 26.77132812 16.76757812 25.81640625 C14.5094238 23.54655165 12.25439397 21.27358938 10 19 C9.67 27.58 9.34 36.16 9 45 C6.69 45 4.38 45 2 45 C1.97494385 43.94498291 1.9498877 42.88996582 1.92407227 41.80297852 C1.83015891 37.90229372 1.72989966 34.00179375 1.62768555 30.10131836 C1.58427561 28.41060701 1.54260511 26.71985009 1.50268555 25.02905273 C1.44512906 22.60386394 1.38139351 20.17890585 1.31640625 17.75390625 C1.29969376 16.99348526 1.28298126 16.23306427 1.26576233 15.44960022 C1.47908732 11.92917969 1.47908732 11.92917969 0 9 C-0.14177857 5.99996555 -0.04228771 3.00242765 0 0 Z " fill="#232222" transform="translate(184,108)"/>
<path d="M0 0 C4.79898547 3.01331646 7.44558905 6.5969673 9 12 C9.90775157 19.86718029 10.07871671 27.54612307 5 34 C1.02527532 38.23607644 -3.25144373 40.62972817 -9.015625 41.40625 C-15.89223997 41.60557217 -20.65845383 41.12954759 -26.19140625 36.85546875 C-30.62279108 32.30923161 -33.1155614 26.1423172 -33.25 19.8125 C-33.13065853 12.44913136 -30.66967087 6.85861725 -25.65625 1.4765625 C-18.29274043 -5.08807575 -8.16913403 -4.48501476 0 0 Z M-24.875 9.4375 C-26.71829288 15.27459411 -27.39365524 22.21211653 -25.23828125 28.0703125 C-23.36137336 31.02291858 -20.95115243 33.18072565 -18 35 C-15.12680256 35.47378796 -15.12680256 35.47378796 -12.0625 35.375 C-11.04285156 35.38273437 -10.02320313 35.39046875 -8.97265625 35.3984375 C-5.55726374 34.94065821 -3.72773511 34.08812826 -1 32 C2.27664652 27.32444136 3.73149242 21.88373822 3.453125 16.20703125 C2.41450527 11.14823685 -0.43933943 7.42688967 -4.1875 4 C-12.36086816 1.09391354 -19.4706218 2.41180834 -24.875 9.4375 Z " fill="#232222" transform="translate(358,112)"/>
<path d="M0 0 C1.98 0 3.96 0 6 0 C6 14.19 6 28.38 6 43 C0.08259746 37.92794068 -5.43711539 32.74620181 -10.9375 27.25 C-11.81212891 26.38761719 -12.68675781 25.52523437 -13.58789062 24.63671875 C-14.82635742 23.40115234 -14.82635742 23.40115234 -16.08984375 22.140625 C-16.84128662 21.39329102 -17.59272949 20.64595703 -18.36694336 19.87597656 C-20 18 -20 18 -20 16 C-20.66 16 -21.32 16 -22 16 C-22 24.91 -22 33.82 -22 43 C-23.98 43 -25.96 43 -28 43 C-28 29.14 -28 15.28 -28 1 C-27.34 1 -26.68 1 -26 1 C-24.60522461 2.41601562 -24.60522461 2.41601562 -22.96484375 4.40625 C-18.74767148 9.36582828 -14.18729885 13.92326537 -9.5625 18.5 C-5.3240625 22.7075 -5.3240625 22.7075 -1 27 C-0.67 18.09 -0.34 9.18 0 0 Z " fill="#1E1D1D" transform="translate(411,110)"/>
<path d="M0 0 C1.87907267 0.9496028 3.697652 2.01725864 5.5 3.10546875 C5.5 4.42546875 5.5 5.74546875 5.5 7.10546875 C4.51 7.76546875 3.52 8.42546875 2.5 9.10546875 C1.901875 8.61046875 1.30375 8.11546875 0.6875 7.60546875 C-4.01302435 5.39345729 -8.38989285 5.42052969 -13.5 6.10546875 C-17.8811842 8.47861019 -19.831038 11.44994318 -21.5 16.10546875 C-22.29465428 22.07081867 -21.51221586 26.80812362 -18.5 32.10546875 C-16.12911848 34.9949806 -14.56525683 35.99613154 -10.8359375 36.37890625 C-6.78713924 36.43232048 -3.3596337 36.39201332 0.5 35.10546875 C0.83 32.46546875 1.16 29.82546875 1.5 27.10546875 C-1.47 27.10546875 -4.44 27.10546875 -7.5 27.10546875 C-7.5 25.45546875 -7.5 23.80546875 -7.5 22.10546875 C-2.55 22.10546875 2.4 22.10546875 7.5 22.10546875 C7.66236745 24.6913208 7.78095486 27.26698829 7.875 29.85546875 C7.92527344 30.58507812 7.97554688 31.3146875 8.02734375 32.06640625 C8.0859375 34.21484375 8.0859375 34.21484375 7.5 38.10546875 C1.63227893 43.1811283 -3.79628623 43.45750589 -11.265625 43.3828125 C-17.0647886 42.88554122 -20.45366203 40.47162954 -24.3125 36.16796875 C-29.26690581 29.23180061 -29.3871014 22.43128506 -28.5 14.10546875 C-26.34986851 7.37670904 -22.46501945 3.64029509 -16.5 0.10546875 C-11.22311279 -1.65349365 -5.27750119 -1.8883559 0 0 Z " fill="#222121" transform="translate(265.5,109.89453125)"/>
<path d="M0 0 C0.47161454 4.02051399 0.36728517 5.53433488 -2.1875 8.7734375 C-3.5796875 10.06121094 -3.5796875 10.06121094 -5 11.375 C-5.928125 12.24898437 -6.85625 13.12296875 -7.8125 14.0234375 C-8.8953125 15.00183594 -8.8953125 15.00183594 -10 16 C-9.41992188 16.67095703 -9.41992188 16.67095703 -8.828125 17.35546875 C-7.74737698 18.6100995 -6.67210916 19.86946597 -5.6015625 21.1328125 C-4.30971178 22.63892139 -2.97382205 24.107192 -1.625 25.5625 C0.38012635 28.57018952 0.32967127 30.4560338 0 34 C-1.485 33.505 -1.485 33.505 -3 33 C-5.31 35.31 -7.62 37.62 -10 40 C-9.0925 41.0725 -8.185 42.145 -7.25 43.25 C-6.70601562 43.89453125 -6.16203125 44.5390625 -5.6015625 45.203125 C-3.96253777 47.12790429 -3.96253777 47.12790429 -1.625 49 C0.75119695 51.9245501 0.28007626 54.35900857 0 58 C-6.55377097 52.61359076 -12.47246635 46.64114873 -18.4375 40.625 C-19.46525983 39.59221405 -20.49325285 38.55966009 -21.52148438 37.52734375 C-24.01701598 35.02089713 -26.50938082 32.5113292 -29 30 C-27.36126156 25.81582597 -24.28705654 23.01602195 -21.15234375 19.921875 C-20.29450035 19.06471893 -20.29450035 19.06471893 -19.41932678 18.19024658 C-18.21380214 16.98773552 -17.00585546 15.78764828 -15.7956543 14.58984375 C-13.93542052 12.74794101 -12.08338783 10.89808634 -10.23242188 9.046875 C-9.06036812 7.87973386 -7.88785793 6.71305087 -6.71484375 5.546875 C-6.15756088 4.99070496 -5.60027802 4.43453491 -5.02610779 3.86151123 C-1.11606528 0 -1.11606528 0 0 0 Z " fill="#232222" transform="translate(168,42)"/>
<path d="M0 0 C9.24 0 18.48 0 28 0 C28 1.65 28 3.3 28 5 C20.74 5 13.48 5 6 5 C6 9.62 6 14.24 6 19 C11.61 19 17.22 19 23 19 C23 20.65 23 22.3 23 24 C17.39 24 11.78 24 6 24 C6 28.29 6 32.58 6 37 C13.26 37 20.52 37 28 37 C28 38.98 28 40.96 28 43 C18.76 43 9.52 43 0 43 C0 28.81 0 14.62 0 0 Z " fill="#1F1E1E" transform="translate(42,110)"/>
<path d="M0 0 C10.23 0 20.46 0 31 0 C31 1.65 31 3.3 31 5 C26.71 5 22.42 5 18 5 C18 17.54 18 30.08 18 43 C16.02 43 14.04 43 12 43 C12 30.46 12 17.92 12 5 C8.04 5 4.08 5 0 5 C0 3.35 0 1.7 0 0 Z " fill="#1D1C1C" transform="translate(285,110)"/>
<path d="M0 0 C1.98 0 3.96 0 6 0 C6 12.21 6 24.42 6 37 C11.61 37 17.22 37 23 37 C23 38.98 23 40.96 23 43 C15.41 43 7.82 43 0 43 C0 28.81 0 14.62 0 0 Z " fill="#232222" transform="translate(124,110)"/>
<path d="M0 0 C1.98 0 3.96 0 6 0 C6 12.21 6 24.42 6 37 C11.28 37 16.56 37 22 37 C22 38.65 22 40.3 22 42 C14.74 42 7.48 42 0 42 C0 28.14 0 14.28 0 0 Z " fill="#1C1B1B" transform="translate(86,110)"/>
<path d="M0 0 C1.98 0 3.96 0 6 0 C6 14.19 6 28.38 6 43 C4.02 43 2.04 43 0 43 C0 28.81 0 14.62 0 0 Z " fill="#222121" transform="translate(162,110)"/>
<path d="M0 0 C2.19791585 1.5848917 2.8966974 2.48627897 3.43359375 5.15625 C3.44406064 11.43638457 3.44406064 11.43638457 1.375 14.0625 C-1.70053186 15.27652573 -3.71939399 15.47842171 -7 15 C-9.375 13.5 -9.375 13.5 -11 11 C-11.6293407 7.48559179 -11.63147635 4.2629527 -10 1 C-6.83009169 -0.58495415 -3.45936747 -0.71140218 0 0 Z " fill="#EFEFEF" transform="translate(247,171)"/>
<path d="M0 0 C6.75 5.625 6.75 5.625 9 9 C6.69 11.64 4.38 14.28 2 17 C-2.81429916 14.59285042 -4.6345082 12.13037629 -8 8 C-5.36 5.36 -2.72 2.72 0 0 Z " fill="#F3F3F3" transform="translate(153,62)"/>
<path d="M0 0 C0.99 0 1.98 0 3 0 C3 13.53 3 27.06 3 41 C2.01 41 1.02 41 0 41 C0 27.47 0 13.94 0 0 Z " fill="#1B1A1A" transform="translate(164,110)"/>
<path d="M0 0 C6.0546875 -0.1953125 6.0546875 -0.1953125 8 0 C8.66 0.66 9.32 1.32 10 2 C9.625 4.625 9.625 4.625 9 7 C8.34 7 7.68 7 7 7 C7.495 7.94875 7.99 8.8975 8.5 9.875 C10 13 10 13 10 15 C9.34 15 8.68 15 8 15 C5 10.61538462 5 10.61538462 5 8 C4.34 8 3.68 8 3 8 C3 10.31 3 12.62 3 15 C2.01 15 1.02 15 0 15 C0 10.05 0 5.1 0 0 Z " fill="#454545" transform="translate(211,171)"/>
<path d="M0 0 C2.31 0 4.62 0 7 0 C7.66 0.66 8.32 1.32 9 2 C8.625 4.625 8.625 4.625 8 7 C7.34 7 6.68 7 6 7 C6.7734375 8.1446875 6.7734375 8.1446875 7.5625 9.3125 C8.036875 10.199375 8.51125 11.08625 9 12 C8.67 12.99 8.34 13.98 8 15 C7.38125 14.030625 6.7625 13.06125 6.125 12.0625 C4.34321154 8.97164638 4.34321154 8.97164638 2 8 C2 10.31 2 12.62 2 15 C1.34 15 0.68 15 0 15 C0 10.05 0 5.1 0 0 Z " fill="#3A3939" transform="translate(316,171)"/>
<path d="M0 0 C7 0 7 0 9 1 C9.125 3.375 9.125 3.375 9 6 C7 8 7 8 4.375 8.125 C3.59125 8.08375 2.8075 8.0425 2 8 C2 10.31 2 12.62 2 15 C1.34 15 0.68 15 0 15 C0 10.05 0 5.1 0 0 Z " fill="#302F2F" transform="translate(266,171)"/>
<path d="M0 0 C2.31 0 4.62 0 7 0 C7.66 0.66 8.32 1.32 9 2 C8.44444444 6.55555556 8.44444444 6.55555556 7 8 C5.33382885 8.04063832 3.66611905 8.042721 2 8 C2 10.31 2 12.62 2 15 C1.34 15 0.68 15 0 15 C0 10.05 0 5.1 0 0 Z " fill="#353434" transform="translate(187,171)"/>
<path d="M0 0 C2.97 0 5.94 0 9 0 C9 0.66 9 1.32 9 2 C6.69 2 4.38 2 2 2 C2 3.32 2 4.64 2 6 C4.31 6 6.62 6 9 6 C9 6.66 9 7.32 9 8 C6.69 8 4.38 8 2 8 C2 9.65 2 11.3 2 13 C4.31 13 6.62 13 9 13 C9 13.66 9 14.32 9 15 C6.03 15 3.06 15 0 15 C0 10.05 0 5.1 0 0 Z " fill="#353434" transform="translate(291,171)"/>
<path d="M0 0 C2.19791585 1.5848917 2.8966974 2.48627897 3.43359375 5.15625 C3.44406064 11.43638457 3.44406064 11.43638457 1.375 14.0625 C-1.70053186 15.27652573 -3.71939399 15.47842171 -7 15 C-9.375 13.5 -9.375 13.5 -11 11 C-11.6293407 7.48559179 -11.63147635 4.2629527 -10 1 C-6.83009169 -0.58495415 -3.45936747 -0.71140218 0 0 Z M-9 3 C-9.43827201 4.90457929 -9.43827201 4.90457929 -9.3125 7 C-9.30863281 7.70125 -9.30476562 8.4025 -9.30078125 9.125 C-9.14912946 11.2416577 -9.14912946 11.2416577 -7 13 C-3.90228335 13.32954432 -1.82668977 13.45334601 0.9375 11.9375 C2.66665678 8.78433176 1.8590699 6.37491745 1 3 C-3.09913608 0.26724261 -4.90086392 0.26724261 -9 3 Z " fill="#181717" transform="translate(247,171)"/>
<path d="M0 0 C2.97 0 5.94 0 9 0 C9 0.66 9 1.32 9 2 C6.69 2 4.38 2 2 2 C2 3.32 2 4.64 2 6 C4.31 6 6.62 6 9 6 C9 6.66 9 7.32 9 8 C6.69 8 4.38 8 2 8 C2 9.65 2 11.3 2 13 C4.31 13 6.62 13 9 13 C9 13.33 9 13.66 9 14 C6.03 14 3.06 14 0 14 C0 9.38 0 4.76 0 0 Z " fill="#2F2E2E" transform="translate(384,171)"/>
<path d="M0 0 C0.94875 0.04125 1.8975 0.0825 2.875 0.125 C3.205 0.785 3.535 1.445 3.875 2.125 C1.895 2.125 -0.085 2.125 -2.125 2.125 C-2.125 3.115 -2.125 4.105 -2.125 5.125 C-0.145 6.115 1.835 7.105 3.875 8.125 C4 10.5 4 10.5 3.875 13.125 C1.875 15.125 1.875 15.125 -0.625 15.4375 C-1.8625 15.2828125 -1.8625 15.2828125 -3.125 15.125 C-3.785 14.135 -4.445 13.145 -5.125 12.125 C-2.815 12.455 -0.505 12.785 1.875 13.125 C1.875 11.805 1.875 10.485 1.875 9.125 C-0.105 8.465 -2.085 7.805 -4.125 7.125 C-4.75 4.75 -4.75 4.75 -5.125 2.125 C-3.125 0.125 -3.125 0.125 0 0 Z " fill="#2C2B2B" transform="translate(413.125,170.875)"/>
<path d="M0 0 C3.96 0 7.92 0 12 0 C12 0.66 12 1.32 12 2 C10.35 2 8.7 2 7 2 C7 6.29 7 10.58 7 15 C6.34 15 5.68 15 5 15 C5 10.71 5 6.42 5 2 C3.35 2 1.7 2 0 2 C0 1.34 0 0.68 0 0 Z " fill="#363535" transform="translate(339,171)"/>
<path d="M0 0 C2.31 0 4.62 0 7 0 C7.66 0.66 8.32 1.32 9 2 C8.625 4.625 8.625 4.625 8 7 C7.34 6.34 6.68 5.68 6 5 C6.33 4.01 6.66 3.02 7 2 C5.35 2 3.7 2 2 2 C1.67 5.96 1.34 9.92 1 14 C0.67 14 0.34 14 0 14 C0 9.38 0 4.76 0 0 Z " fill="#282727" transform="translate(316,171)"/>
<path d="M0 0 C0.33 0 0.66 0 1 0 C1.66 2.31 2.32 4.62 3 7 C6.5219721 7.08004482 9.61981469 7.04005702 13 6 C10.73943528 8.7822335 9.5944274 9.90092877 6 10.5 C3 10 3 10 0.5625 8.375 C-1 6 -1 6 -0.75 2.75 C-0.5025 1.8425 -0.255 0.935 0 0 Z " fill="#414040" transform="translate(237,176)"/>
<path d="M0 0 C0.99 0.33 1.98 0.66 3 1 C2.125 5.875 2.125 5.875 1 7 C-0.66617115 7.04063832 -2.33388095 7.042721 -4 7 C-4 6.34 -4 5.68 -4 5 C-2.68 4.67 -1.36 4.34 0 4 C0 2.68 0 1.36 0 0 Z " fill="#333232" transform="translate(193,172)"/>
<path d="M0 0 C1.65 0 3.3 0 5 0 C5 1.32 5 2.64 5 4 C3.35 4 1.7 4 0 4 C0 2.68 0 1.36 0 0 Z " fill="#E7E6E6" transform="translate(213,173)"/>
<path d="M0 0 C0.86625 0.556875 0.86625 0.556875 1.75 1.125 C1.42 2.775 1.09 4.425 0.75 6.125 C0.09 5.465 -0.57 4.805 -1.25 4.125 C-1.25 3.465 -1.25 2.805 -1.25 2.125 C-2.9 1.795 -4.55 1.465 -6.25 1.125 C-2.80384615 -1.09038462 -2.80384615 -1.09038462 0 0 Z " fill="#4B4A4A" transform="translate(219.25,171.875)"/>
<path d="M0 0 C1.65 0 3.3 0 5 0 C5 1.32 5 2.64 5 4 C3.35 4 1.7 4 0 4 C0 2.68 0 1.36 0 0 Z " fill="#EEEEEE" transform="translate(268,173)"/>
<path d="M0 0 C1.65 0 3.3 0 5 0 C4.67 1.32 4.34 2.64 4 4 C2.68 4 1.36 4 0 4 C0 2.68 0 1.36 0 0 Z " fill="#F5F5F5" transform="translate(318,173)"/>
<path d="M0 0 C1.65 0 3.3 0 5 0 C4.67 1.32 4.34 2.64 4 4 C2.68 4 1.36 4 0 4 C0 2.68 0 1.36 0 0 Z " fill="#F2F2F2" transform="translate(189,173)"/>
</svg>
