<?xml version="1.0" encoding="UTF-8"?>
<svg version="1.1" xmlns="http://www.w3.org/2000/svg" width="1640" height="636">
<path d="M0 0 C6.63386694 14.47631124 13.11031737 29.01224742 19.4375 43.625 C20.30075897 45.61536072 21.16412403 47.60567543 22.02758789 49.59594727 C24.24864569 54.71718617 26.46695713 59.83961004 28.68457031 64.96234131 C29.97499314 67.94225285 31.26657792 70.92165775 32.55859375 73.90087891 C47.92911417 109.34606281 47.92911417 109.34606281 55.25 126.9375 C60.75622772 140.13933212 66.37943959 153.29047793 72.04748535 166.4236145 C73.03729178 168.71934575 74.02477988 171.01607831 75.00964355 173.31393433 C86.75329696 200.69685091 99.41717395 227.52848038 117.234375 251.54296875 C119 254 119 254 119 255 C94.91 255 70.82 255 46 255 C46.66 249.39 47.32 243.78 48 238 C46.97376915 233.59622915 46.03850625 230.38422013 44.25 226.375 C43.83097412 225.35325684 43.41194824 224.33151367 42.98022461 223.27880859 C41.69212672 220.16772268 40.35267182 217.08346658 39 214 C38.26539738 212.27669294 37.5322541 210.55276285 36.80078125 208.828125 C35.23119937 205.16029673 33.63058954 201.50743526 32.015625 197.859375 C28.58960908 190.10279997 25.26680727 182.30273351 21.93624878 174.50485229 C14.68630933 157.53818657 7.38827701 140.59222326 0.05722046 123.66046143 C-0.9786203 121.26714898 -2.01343548 118.87339238 -3.04721069 116.47918701 C-4.49732699 113.12158055 -5.95126202 109.76565394 -7.40625 106.41015625 C-8.0597216 104.89436226 -8.0597216 104.89436226 -8.72639465 103.34794617 C-9.12928207 102.42109512 -9.53216949 101.49424408 -9.94726562 100.53930664 C-10.29712524 99.73110977 -10.64698486 98.9229129 -11.00744629 98.09022522 C-12.04384524 95.77804958 -12.04384524 95.77804958 -14 93 C-14.23200104 93.69822372 -14.46400208 94.39644745 -14.70303345 95.11582947 C-17.674472 104.0572355 -20.64861287 112.99774015 -23.625 121.9375 C-23.86523643 122.65906532 -24.10547287 123.38063065 -24.3529892 124.12406158 C-30.47297749 142.50322884 -36.62105111 160.8712426 -42.92105103 179.18966675 C-46.6891997 190.15065312 -50.38792538 201.13361629 -54.04296875 212.1328125 C-54.26099152 212.78863186 -54.47901428 213.44445122 -54.7036438 214.12014389 C-56.88838125 220.69224592 -59.0703899 227.26523224 -61.24365139 233.84113884 C-62.23978456 236.85311433 -63.23943898 239.86392202 -64.23828125 242.875 C-64.60422897 243.98634308 -64.9701767 245.09768616 -65.34721375 246.2427063 C-65.68291885 247.2531601 -66.01862396 248.26361389 -66.36450195 249.3046875 C-66.80413017 250.6347583 -66.80413017 250.6347583 -67.25263977 251.99169922 C-68 254 -68 254 -69 255 C-71.29151417 255.08790975 -73.58572524 255.10694038 -75.87890625 255.09765625 C-76.90889992 255.09553383 -76.90889992 255.09553383 -77.95970154 255.09336853 C-80.16067801 255.08775479 -82.36155409 255.07520007 -84.5625 255.0625 C-86.05143083 255.05748676 -87.54036324 255.05292355 -89.02929688 255.04882812 C-92.68623075 255.03778093 -96.34310558 255.02050713 -100 255 C-100.21281113 254.41310394 -100.42562225 253.82620789 -100.6448822 253.2215271 C-110.58416922 225.81453208 -120.55097723 198.41908044 -130.67871094 171.08105469 C-131.36786592 169.22071327 -132.05699343 167.36036167 -132.74609375 165.5 C-133.08738312 164.57866272 -133.42867249 163.65732544 -133.78030396 162.70806885 C-138.86280796 148.97868815 -143.89855819 135.2320526 -148.93798828 121.48681641 C-152.91594096 110.64157506 -156.922731 99.80832401 -161 89 C-165.19340898 97.63959097 -168.50428259 106.53072612 -171.75894165 115.55145264 C-172.71384686 118.19802169 -173.67398281 120.84264208 -174.63549805 123.48681641 C-175.66770771 126.3254981 -176.69961427 129.16428571 -177.72999573 132.00363159 C-181.50820286 142.4133572 -185.3257819 152.80854085 -189.14682007 163.2026062 C-190.3079219 166.36254071 -191.4672674 169.52311482 -192.6262207 172.68383789 C-195.79311917 181.3157574 -198.96262979 189.94571239 -202.22265625 198.54296875 C-211.27309469 220.14780643 -211.27309469 220.14780643 -213 243 C-210.69 246.96 -208.38 250.92 -206 255 C-226.13 255 -246.26 255 -267 255 C-265.58426766 250.75280298 -264.55220816 247.93342081 -262.34765625 244.26171875 C-261.82445801 243.37339355 -261.30125977 242.48506836 -260.76220703 241.56982422 C-259.92085205 240.14307373 -259.92085205 240.14307373 -259.0625 238.6875 C-247.499081 218.58150553 -239.27205025 196.95064935 -230.63557434 175.4778595 C-227.70862395 168.20124311 -224.73564643 160.94825917 -221.69189453 153.71948242 C-215.39586588 138.73939161 -209.52752223 123.60019981 -203.6875 108.4375 C-203.25893707 107.32720428 -202.83037415 106.21690857 -202.38882446 105.07296753 C-199.55687166 97.72855574 -196.75800812 90.37250471 -194 83 C-193.64214417 82.04635559 -193.28428833 81.09271118 -192.91558838 80.11016846 C-191.91474042 77.42359544 -190.93237611 74.73107829 -189.95703125 72.03515625 C-189.66873947 71.26288193 -189.38044769 70.4906076 -189.0834198 69.69493103 C-182.67160669 51.64988608 -189.58760097 36.61393968 -197.1875 20.25 C-198.31243203 17.79849038 -199.43340897 15.34524927 -200.55085754 12.89031982 C-201.24127067 11.37661539 -201.93663388 9.86515662 -202.63749695 8.35626221 C-205 3.21974333 -205 3.21974333 -205 1 C-186.52 1 -168.04 1 -149 1 C-145.78642372 8.06986781 -142.68778215 15.07989791 -139.83984375 22.2890625 C-139.45731949 23.2502298 -139.07479523 24.21139709 -138.68067932 25.20169067 C-137.85883414 27.26681895 -137.03805623 29.33237224 -136.21826172 31.39831543 C-134.00512879 36.97396762 -131.7825205 42.54583322 -129.55859375 48.1171875 C-129.10056366 49.26465454 -128.64253357 50.41212158 -128.17062378 51.59436035 C-123.34281175 63.67176571 -118.42767912 75.71307051 -113.5 87.75 C-107.72275455 101.86637003 -101.971478 115.99077847 -96.32910156 130.16162109 C-92.1772577 140.58283836 -87.96782312 150.98033895 -83.75 161.375 C-83.41068451 162.21123901 -83.07136902 163.04747803 -82.72177124 163.90905762 C-80.81547739 168.60642992 -78.90816981 173.30338946 -77 178 C-73.67277884 170.00256495 -70.82462208 161.86548689 -68.03515625 153.66796875 C-67.56036693 152.27931898 -67.0853087 150.89076112 -66.61000061 149.50228882 C-65.60806149 146.57417756 -64.60753208 143.64559052 -63.60821533 140.71658325 C-61.02475014 133.14494299 -58.43258876 125.57627915 -55.83984375 118.0078125 C-55.58534958 117.26468119 -55.33085541 116.52154987 -55.06864929 115.75589943 C-50.30398014 101.8460081 -45.46499187 87.9632926 -40.54321289 74.1081543 C-40.30243515 73.42862701 -40.06165741 72.74909973 -39.81358337 72.04898071 C-39.19150952 70.29445777 -38.56683708 68.54085671 -37.94189453 66.78735352 C-33.21427184 52.79687446 -36.65589475 41.0876548 -42 28 C-42.87626497 25.81170403 -43.75117471 23.62286507 -44.625 21.43359375 C-45.98863193 18.01845443 -47.3572247 14.60602451 -48.74755859 11.20166016 C-49.16859863 10.16702637 -49.58963867 9.13239258 -50.0234375 8.06640625 C-50.40419434 7.13771729 -50.78495117 6.20902832 -51.17724609 5.25219727 C-52 3 -52 3 -52 1 C-45.23731695 0.85699851 -38.47462041 0.71464912 -31.71191406 0.57275391 C-29.41112965 0.52440174 -27.11034837 0.47590007 -24.80957031 0.42724609 C-21.50326334 0.35735436 -18.19694548 0.28799955 -14.890625 0.21875 C-13.86132874 0.19687622 -12.83203247 0.17500244 -11.77154541 0.15246582 C-10.81085144 0.13244507 -9.85015747 0.11242432 -8.86035156 0.09179688 C-7.59460297 0.06514954 -7.59460297 0.06514954 -6.30328369 0.03796387 C-4.20243637 0.00333666 -2.10113267 0 0 0 Z " fill="#FFFFFF" transform="translate(467,121)"/>
<path d="M0 0 C79.2 0 158.4 0 240 0 C237.9912331 4.0175338 235.57931471 7.38585393 232.875 10.9375 C232.35075439 11.63133789 231.82650879 12.32517578 231.28637695 13.04003906 C226.25828207 19.68574181 221.19805126 26.30726946 216.140625 32.93066406 C211.51725515 38.9906123 206.93612499 45.08061416 202.375 51.1875 C197.01701369 58.35768445 191.56685111 65.44814115 186.05371094 72.49951172 C181.86003171 77.87125725 177.74715301 83.29749287 173.67236328 88.75976562 C169.54752032 94.28480946 165.37258584 99.77048536 161.1875 105.25 C155.8788126 112.20137081 150.60897429 119.17972547 145.375 126.1875 C139.94702173 133.45144358 134.4260613 140.63568293 128.84277344 147.78076172 C125.00733563 152.69225897 121.23815632 157.64668827 117.515625 162.64453125 C114.1704863 167.12292674 110.7673572 171.55735005 107.375 176 C101.42957503 183.78947543 95.52198125 191.60577996 89.66357422 199.4609375 C85.56437453 204.94724615 81.4131837 210.3926905 77.25073242 215.83105469 C76.64868736 216.61797699 76.0466423 217.40489929 75.42635345 218.21566772 C73.95108172 220.14391588 72.47562583 222.07202282 71 224 C83.49359552 223.91488192 95.98707317 223.81973683 108.48049927 223.71247292 C114.28433946 223.66294379 120.08816513 223.61661763 125.89208984 223.578125 C131.51378761 223.5407145 137.13534911 223.49422046 142.75692749 223.44193649 C144.88062095 223.42368349 147.00434326 223.40847375 149.12808228 223.39665604 C169.83807096 223.27750753 190.31404159 221.91981049 210.75 218.5 C212.08059468 218.28432489 213.41132499 218.06948495 214.7421875 217.85546875 C218.49656035 217.24715585 222.24858258 216.62625288 226 216 C227.19431641 215.80148437 228.38863281 215.60296875 229.61914062 215.3984375 C232.41298104 214.93361578 235.20652628 214.46702037 238 214 C235.55523234 227.4462221 232.20675395 240.71487648 229 254 C147.16 254 65.32 254 -19 254 C-11.57451206 244.09934942 -4.03809257 234.29656046 3.61865234 224.57470703 C9.17784987 217.51250289 14.68776752 210.41204419 20.20166016 203.31445312 C23.13299363 199.54184366 26.06659198 195.77099645 29 192 C30.16667794 190.50000877 31.3333446 189.00000876 32.5 187.5 C53.5 160.5 53.5 160.5 55.25097656 158.2487793 C56.41443312 156.75288338 57.57784478 155.25695255 58.74121094 153.76098633 C61.70661998 149.94790224 64.67287262 146.13547936 67.640625 142.32421875 C72.77594703 135.72798614 77.9087193 129.13031163 83 122.5 C88.69469554 115.08386871 94.44087592 107.70801416 100.18554688 100.33056641 C103.12513338 96.55482734 106.06247715 92.77734465 109 89 C110.16665539 87.49999123 111.33332207 85.99999124 112.5 84.5 C113.0775 83.7575 113.655 83.015 114.25 82.25 C119.5 75.5 119.5 75.5 121.2512207 73.24853516 C122.41395367 71.7535232 123.57655207 70.25840656 124.73901367 68.76318359 C127.71475225 64.93598245 130.69304666 61.11081451 133.67578125 57.2890625 C134.28486328 56.50789063 134.89394531 55.72671875 135.52148438 54.921875 C136.66121309 53.46023817 137.80174895 51.99923009 138.94335938 50.5390625 C142.24687718 46.30028389 145.49513932 42.02238003 148.71557617 37.72021484 C149.12927208 37.16806808 149.54296799 36.61592133 149.96920013 36.04704285 C150.97973715 34.6982311 151.98990651 33.34914392 153 32 C140.61016172 31.92967387 128.22037294 31.87677811 115.83037376 31.84456348 C110.07369175 31.82908169 104.31714885 31.80817464 98.56054688 31.77368164 C66.85027734 31.5888134 36.35595837 32.44840434 5.07421875 38.1328125 C0.39548808 38.96826831 -4.27131608 39.52761363 -9 40 C-8.40699649 32.480386 -6.79734048 25.35626759 -4.98876953 18.04077148 C-4.49533947 16.04363674 -4.01071821 14.04451179 -3.52734375 12.04492188 C-1.14439467 2.28878934 -1.14439467 2.28878934 0 0 Z " fill="#FFFFFF" transform="translate(1285,122)"/>
<path d="M0 0 C20.13 0 40.26 0 61 0 C64.34514992 6.69029985 67.40328672 13.22270112 70.1875 20.125 C74.76216749 31.27653412 79.65980259 42.26824533 84.625 53.25 C85.20371857 54.53014481 85.20371857 54.53014481 85.79412842 55.83615112 C87.36798852 59.31699647 88.94193287 62.79780361 90.51641846 66.27836609 C94.48755883 75.06408444 98.4044043 83.8735984 102.3125 92.6875 C103.63121387 95.6602879 104.95022831 98.63294223 106.26953125 101.60546875 C106.58656006 102.31978058 106.90358887 103.03409241 107.23022461 103.77005005 C110.81887174 111.85111823 114.43994767 119.91757231 118.06542969 127.98217773 C121.04619323 134.61919169 124.00509851 141.26509937 126.94140625 147.921875 C149.67164633 200.05766445 149.67164633 200.05766445 181.37890625 247.01953125 C186 252.66506024 186 252.66506024 186 255 C157.62 255 129.24 255 100 255 C102.92518053 250.6122292 105.27011574 247.5356509 108.92578125 244.00390625 C110.60521514 240.87099867 109.65910397 238.42359851 109 235 C107.93090053 231.95225637 107.93090053 231.95225637 106.515625 228.95703125 C105.99830811 227.81339111 105.48099121 226.66975098 104.94799805 225.49145508 C104.38217232 224.2650566 103.81616884 223.03874012 103.25 221.8125 C102.67090197 220.54028921 102.09254427 219.2677412 101.51489258 217.99487305 C98.46452616 211.29091428 95.35908442 204.61255796 92.24609375 197.9375 C91.79512833 196.96969856 91.79512833 196.96969856 91.33505249 195.98234558 C89.88492184 192.87203523 88.42964211 189.7643474 86.96386719 186.66137695 C86.4434082 185.55238037 85.92294922 184.44338379 85.38671875 183.30078125 C84.92483154 182.32278564 84.46294434 181.34479004 83.98706055 180.3371582 C83 178 83 178 83 176 C68.02541792 173.1432571 53.40737892 172.53107839 38.18188477 172.60888672 C34.43924611 172.62499249 30.6976846 172.60893743 26.95507812 172.58984375 C21.02724237 172.57774398 15.11366833 172.68898239 9.18972778 172.90130615 C7.14852111 172.96446344 5.10611718 172.9992753 3.06393433 172.99761963 C-5.32156627 172.99654357 -5.32156627 172.99654357 -13 176 C-17.96916892 181.46789778 -20.00595846 188.75718769 -22.3125 195.625 C-22.98702595 197.44536048 -23.66862653 199.26311577 -24.35742188 201.078125 C-26.01893183 205.5068535 -27.57718162 209.96392392 -29.10699463 214.4395752 C-29.98182934 216.94790109 -30.90357262 219.43306221 -31.84521484 221.91699219 C-32.13220749 222.68594818 -32.41920013 223.45490417 -32.71488953 224.24716187 C-33.24855736 225.67386213 -33.79165866 227.09708671 -34.3462677 228.51577759 C-35.89935559 232.74478829 -36.25514469 235.65855379 -35 240 C-34.02762294 241.96362314 -34.02762294 241.96362314 -32.71484375 243.61328125 C-32.04291992 244.5249707 -32.04291992 244.5249707 -31.35742188 245.45507812 C-30.88884766 246.06802734 -30.42027344 246.68097656 -29.9375 247.3125 C-25 253.92053206 -25 253.92053206 -25 255 C-48.43 255 -71.86 255 -96 255 C-94.48058613 251.20146532 -93.4607955 248.99953112 -91.12890625 245.875 C-75.64019302 224.71170362 -65.61672054 201.71753177 -55.32785034 177.74246216 C-51.82797435 169.58747153 -48.28196571 161.45302165 -44.72866821 153.32119751 C-42.9625166 149.27769027 -41.19997134 145.23261245 -39.4375 141.1875 C-38.9004821 139.95505302 -38.9004821 139.95505302 -38.35261536 138.69770813 C-33.12338271 126.69476549 -27.90269214 114.68810058 -22.68603516 102.6796875 C-18.74830358 93.61605556 -14.80731852 84.55389901 -10.85203552 75.49790955 C-9.02630768 71.31726174 -7.2026188 67.13572586 -5.37905884 62.95413208 C-4.51383962 60.97165475 -3.64763774 58.98960595 -2.78036499 57.00802612 C8.17767408 36.45746053 8.17767408 36.45746053 10.29296875 14.57421875 C8.73141624 11.46526678 6.77222384 9.32768247 4.375 6.8125 C0 2.20977918 0 2.20977918 0 0 Z M32 65 C27.03772128 76.7614176 22.0838044 88.52633501 17.13739014 100.29443359 C16.01538378 102.96340585 14.8927097 105.63209658 13.77001953 108.30078125 C12.00900107 112.48823958 10.25205253 116.67738469 8.49807739 120.86779785 C7.83288234 122.45547943 7.16643977 124.04263891 6.49874878 125.62927246 C5.56872812 127.84000259 4.64317198 130.0525491 3.71875 132.265625 C3.44140518 132.92220093 3.16406036 133.57877686 2.87831116 134.25524902 C1.45877211 137.51694995 1.45877211 137.51694995 1 141 C22.78 141 44.56 141 67 141 C66.29012287 137.45061433 65.78168274 135.1710836 64.34863281 132.03710938 C64.00984604 131.28926178 63.67105927 130.54141418 63.32200623 129.77090454 C62.95277542 128.96994354 62.58354462 128.16898254 62.203125 127.34375 C61.81749893 126.49597992 61.43187286 125.64820984 61.03456116 124.77474976 C59.7777765 122.01431287 58.5138722 119.25719801 57.25 116.5 C56.38637352 114.60590013 55.52333931 112.71153009 54.66088867 110.81689453 C53.35911368 107.95735979 52.05696876 105.09800072 50.75285339 102.23953247 C46.90321032 93.80079828 43.09877477 85.34231734 39.3125 76.875 C38.76144005 75.64385925 38.21033488 74.41273874 37.65917969 73.18164062 C36.43874439 70.45474307 35.21895874 67.72755782 34 65 C33.34 65 32.68 65 32 65 Z " fill="#FFFFFF" transform="translate(1049,121)"/>
<path d="M0 0 C81.18 0 162.36 0 246 0 C247.98 13.2 249.96 26.4 252 40 C246.73118929 39.41457659 241.74934955 38.8469951 236.5859375 37.87890625 C214.03268448 33.74897399 192.13043132 31.9516243 169.23046875 31.453125 C167.26313805 31.4085799 165.29581214 31.36382246 163.32849121 31.31884766 C158.55237923 31.21011764 153.77621159 31.10425879 149 31 C149.0606699 56.26169573 149.13826494 81.5232912 149.23571491 106.78487301 C149.28057839 118.51567114 149.32001463 130.24643956 149.34643555 141.97729492 C149.36949237 152.20826544 149.40297555 162.43914116 149.44870156 172.67003638 C149.47253054 178.08143434 149.49132672 183.49273902 149.49761391 188.90418816 C149.50371179 194.01039662 149.52387909 199.11636671 149.55427551 204.2224865 C149.56298102 206.08428281 149.56679411 207.94611037 149.56500816 209.80792618 C149.55729573 221.57081354 150.58683655 232.47340086 153 244 C153.66 247.3 154.32 250.6 155 254 C133.55 254 112.1 254 90 254 C91.32 248.39 92.64 242.78 94 237 C95.79188947 224.82529201 96.30454035 213.00782938 96.31884766 200.72045898 C96.3281727 198.85590188 96.33834508 196.99134885 96.34928894 195.12680054 C96.37631301 190.12177709 96.39165531 185.11678132 96.40471697 180.11170459 C96.42046987 174.86000609 96.44722053 169.60836316 96.4727478 164.35670471 C96.51932221 154.43727954 96.55616881 144.51784365 96.58942068 134.59836584 C96.62779389 123.29464542 96.67716365 111.99098112 96.72740483 100.68730819 C96.83040689 77.45824718 96.91976931 54.22915004 97 31 C91.17011741 31.11361842 85.34040418 31.23344389 79.51075745 31.35858154 C77.53498139 31.40017113 75.55917124 31.4401771 73.58332825 31.47845459 C48.7355534 31.96236653 24.70226179 34.30767267 0.36474609 39.58862305 C-2 40 -2 40 -6 40 C-5.42162154 31.5611919 -4.37648912 23.28121845 -3 14.9375 C-2.82210937 13.82439453 -2.64421875 12.71128906 -2.4609375 11.56445312 C-1.13782099 3.41346296 -1.13782099 3.41346296 0 0 Z " fill="#FFFFFF" transform="translate(559,122)"/>
<path d="M0 0 C21.45 0 42.9 0 65 0 C64.23802549 5.33382159 63.25437922 9.8780048 61.71875 14.9609375 C60.10658777 21.77757996 59.85189316 28.68409527 59.86628723 35.66351318 C59.8628889 36.89860575 59.8628889 36.89860575 59.85942191 38.15864968 C59.85313925 40.89191391 59.85390756 43.62512783 59.85473633 46.35839844 C59.85174125 48.32875634 59.84833792 50.29911366 59.84455872 52.26947021 C59.83574989 57.60435389 59.83338191 62.9392215 59.83274293 68.27411175 C59.83203064 71.61222944 59.82989293 74.95034309 59.82724571 78.28845978 C59.8180025 89.94849404 59.81390953 101.60851689 59.81469727 113.26855469 C59.81529774 124.11403947 59.80474929 134.95947447 59.7889536 145.80494666 C59.77585085 155.13604202 59.77051452 164.46712116 59.77115268 173.79822564 C59.77140686 179.36250832 59.7685995 184.92674673 59.75797462 190.4910202 C59.74824756 195.72775748 59.7482459 200.96440856 59.75549126 206.20114899 C59.7565314 208.11464057 59.75420842 210.02813766 59.7481308 211.94161987 C59.49493232 231.1023835 59.49493232 231.1023835 65.09765625 249.1953125 C66 251 66 251 67 254 C44.23 254 21.46 254 -2 254 C-0.68 251.36 0.64 248.72 2 246 C6.76233676 232.11751254 6.15011449 217.23510536 6.14526367 202.75146484 C6.14826231 200.94788545 6.15166644 199.14430669 6.15544128 197.34072876 C6.16421453 192.47673814 6.16661659 187.61276515 6.16725707 182.74876738 C6.16797146 179.69936792 6.17011311 176.64997285 6.17275429 173.60057449 C6.18198616 162.93211842 6.18609195 152.26367478 6.18530273 141.59521484 C6.18470277 131.6995222 6.19524421 121.80388422 6.2110464 111.90820539 C6.22418512 103.37183326 6.22948398 94.83547885 6.22884732 86.2990967 C6.22859416 81.21869963 6.23134374 76.13835119 6.24202538 71.05796432 C6.25181349 66.27257956 6.25171338 61.48728885 6.24450874 56.70190048 C6.24347601 54.96185669 6.24574602 53.2218067 6.2518692 51.48177338 C6.28128895 42.5300854 6.02048771 33.69063177 5.11763 24.7796936 C5.00290416 23.62450841 5.00290416 23.62450841 4.88586062 22.44598615 C4.22061852 16.50755091 2.79726805 11.11197082 0.8046875 5.46875 C0 3 0 3 0 0 Z " fill="#FFFFFF" transform="translate(853,122)"/>
<path d="M0 0 C21.45 0 42.9 0 65 0 C63.68 5.28 62.36 10.56 61 16 C60.49399099 18.98930545 60.04515939 21.8275854 59.76617432 24.82398987 C59.65332734 25.93611244 59.65332734 25.93611244 59.53820062 27.07070214 C58.74008957 35.6443264 58.719015 44.21280101 58.74121094 52.81616211 C58.73849175 54.62047974 58.73492568 56.42479625 58.73059082 58.22911072 C58.72157403 63.07216965 58.7249664 67.91514213 58.73134899 72.75820231 C58.73646591 77.86350763 58.73170184 82.96880628 58.72857666 88.07411194 C58.72495309 96.6434154 58.72969328 105.21268423 58.73925781 113.78198242 C58.75013574 123.64086242 58.74661503 133.49965962 58.735605 143.35853761 C58.72648183 151.87378386 58.72527138 160.38900541 58.73048234 168.90425497 C58.733575 173.96780441 58.73408693 179.03131515 58.72740936 184.09486198 C58.72156288 188.85980219 58.72576388 193.62463737 58.73719788 198.38956642 C58.73980608 200.12154848 58.73914667 201.85353964 58.73467255 203.58551788 C58.71376984 212.51125323 58.98326529 221.32648117 59.88336182 230.21144104 C59.9597859 230.98133989 60.03620998 231.75123875 60.11494994 232.54446787 C60.78274834 238.51351862 62.21310302 243.94994843 64.1953125 249.62890625 C65 252 65 252 65 254 C43.55 254 22.1 254 0 254 C2 245 2 245 3.0625 241.4375 C4.88137163 234.76830403 5.14818186 228.17797489 5.14044189 221.31161499 C5.14341302 220.47344573 5.14638414 219.63527646 5.1494453 218.77170813 C5.15806916 215.98239795 5.15963516 213.19313101 5.16113281 210.40380859 C5.16576547 208.39581207 5.17079073 206.38781642 5.17617798 204.37982178 C5.18926108 198.93738063 5.19573897 193.49495179 5.20018864 188.05249739 C5.20312606 184.64720591 5.20723213 181.24191776 5.21169281 177.83662796 C5.22535716 167.16751795 5.23502893 156.49841558 5.2388947 145.82929742 C5.24337254 133.54077906 5.26091224 121.25237208 5.2898953 108.96388757 C5.31155762 99.4468111 5.32160141 89.92976586 5.32293582 80.41266501 C5.32398061 74.73708596 5.32981887 69.06161176 5.34775543 63.38605881 C5.36431486 58.04260309 5.36635359 52.69933019 5.35761642 47.35585785 C5.35685024 45.40408206 5.36113291 43.45229612 5.37107468 41.5005455 C5.42386192 30.48385446 4.70582662 20.71596387 2 10 C1.34 6.7 0.68 3.4 0 0 Z " fill="#FFFFFF" transform="translate(96,122)"/>
<path d="M0 0 C0.66 0 1.32 0 2 0 C5.26569936 6.45531045 8.52196557 12.91531437 11.77172852 19.37866211 C12.87828597 21.57669424 13.98699547 23.77364434 15.09790039 25.96948242 C16.69464545 29.12656932 18.28360166 32.28747112 19.87109375 35.44921875 C20.36902939 36.42960617 20.86696503 37.40999359 21.37998962 38.42008972 C21.84039139 39.34066666 22.30079315 40.26124359 22.77514648 41.2097168 C23.1815184 42.0157988 23.58789032 42.8218808 24.00657654 43.65238953 C25.04054289 46.095809 25.5715202 48.3876589 26 51 C26.66 51 27.32 51 28 51 C28.2371875 50.19892822 28.474375 49.39785645 28.71875 48.57250977 C30.31057467 44.13402455 32.3663594 40.03889154 34.5 35.83984375 C34.93634766 34.97235001 35.37269531 34.10485626 35.82226562 33.21107483 C37.21103506 30.45127742 38.60514141 27.69422416 40 24.9375 C41.39415901 22.17686296 42.78712545 19.41564059 44.17773438 16.6532135 C45.04139073 14.9380898 45.90718361 13.22403983 46.77539062 11.51121521 C48.68391798 7.72581148 50.52211232 3.98035713 52 0 C52.99 0 53.98 0 55 0 C56.17509849 8.17940337 57.34869577 16.3590201 58.52036285 24.53891563 C59.06442807 28.33692312 59.60901534 32.13485424 60.15478516 35.93261719 C60.6811996 39.59583007 61.20625648 43.25923516 61.73036194 46.92277908 C61.93082572 48.32232255 62.13178336 49.72179537 62.33323669 51.12119675 C62.6147307 53.07719367 62.89432572 55.03346359 63.17382812 56.98974609 C63.33371216 58.1044931 63.49359619 59.21924011 63.6583252 60.36776733 C64 63 64 63 64 65 C61.36 65 58.72 65 56 65 C54.02 51.14 52.04 37.28 50 23 C43.07 36.86 36.14 50.72 29 65 C27.68 65 26.36 65 25 65 C24.75165909 64.48856949 24.50331818 63.97713898 24.24745178 63.45021057 C21.67078489 58.14487918 19.09124712 52.84095095 16.51000977 47.5378418 C15.54605015 45.55643249 14.58283226 43.57466216 13.62036133 41.5925293 C12.23972605 38.74954333 10.85646042 35.90785085 9.47265625 33.06640625 C8.8241848 31.72891075 8.8241848 31.72891075 8.16261292 30.36439514 C7.76227341 29.54361984 7.3619339 28.72284454 6.94946289 27.87719727 C6.59638565 27.15105728 6.24330841 26.4249173 5.87953186 25.67677307 C5.11365809 24.01441502 5.11365809 24.01441502 4 23 C2.02 36.86 0.04 50.72 -2 65 C-4.31 65 -6.62 65 -9 65 C-8.46899243 52.93312384 -6.723605 41.05943209 -4.98876953 29.11865234 C-4.49517055 25.7167149 -4.01075608 22.31355463 -3.52734375 18.91015625 C-3.216682 16.74731875 -2.90550339 14.58455542 -2.59375 12.421875 C-2.44893188 11.40430115 -2.30411377 10.38672729 -2.15490723 9.33831787 C-1.94964417 7.93480072 -1.94964417 7.93480072 -1.74023438 6.50292969 C-1.62111694 5.67911804 -1.50199951 4.8553064 -1.37927246 4.00653076 C-1 2 -1 2 0 0 Z " fill="#FFFFFF" transform="translate(932,446)"/>
<path d="M0 0 C8.12948615 5.72679727 14.12585498 13.04130782 16 23 C16.92175979 34.86199076 15.61209948 44.09048063 7.875 53.375 C0.51588141 61.01342507 -7.65818029 64.06818848 -18.125 64.3125 C-28.84431332 64.16748111 -36.12663515 60.86895326 -43.83203125 53.4453125 C-51.74599339 44.51893358 -52.71389051 35.44152884 -52.17919922 23.94433594 C-51.48987342 16.4650571 -47.2739945 9.22910944 -42 4 C-29.67601137 -5.03223923 -13.7897846 -7.78692555 0 0 Z M-41 15 C-45.09038684 21.99324201 -45.95474774 30.2752239 -44.0625 38.125 C-41.55044207 45.29578355 -36.48247587 51.00162936 -29.75 54.5 C-22.33398211 57.80962782 -15.24251317 57.66943265 -7.5625 55.1640625 C-1.47865901 52.40036644 3.42344346 47.77862915 6.5625 41.875 C9.46026819 34.10737138 9.40205443 25.12774646 6 17.5625 C2.12790628 10.93085779 -3.46577597 5.75288251 -10.875 3.4375 C-23.20058878 0.89987878 -33.30075354 5.2278795 -41 15 Z " fill="#FFFFFF" transform="translate(777,449)"/>
<path d="M0 0 C36.74145786 0 36.74145786 0 46.75 9.25 C54.61303614 17.59774384 55.47158684 26.70953945 55.2734375 37.72265625 C54.90298417 46.11654194 51.56877553 52.25218586 45.8671875 58.30859375 C39.6138401 63.9732369 33.59964494 65.15833992 25.390625 65.09765625 C24.74593262 65.09664917 24.10124023 65.09564209 23.43701172 65.09460449 C21.04132291 65.08939402 18.64565957 65.07543281 16.25 65.0625 C10.8875 65.041875 5.525 65.02125 0 65 C0 43.55 0 22.1 0 0 Z M7 8 C7 24.5 7 41 7 58 C26.58250473 59.35223381 26.58250473 59.35223381 42.4375 50.8125 C46.99811149 44.76613689 49.00887217 37.53851707 48 30 C46.6914935 23.08672397 44.46643531 17.59816483 39 13 C28.47795196 6.35022783 20.59506026 8 7 8 Z " fill="#FFFFFF" transform="translate(292,446)"/>
<path d="M0 0 C0.99 0 1.98 0 3 0 C4.91015625 2.01953125 4.91015625 2.01953125 7.0625 4.8125 C10.25290502 8.85092192 13.50207015 12.71830673 17 16.5 C20.27418423 20.05670244 23.40642433 23.67161811 26.4375 27.4375 C30.25953374 32.18256514 34.2916151 36.67642692 38.45874023 41.11694336 C41.90159328 44.80318655 41.90159328 44.80318655 43 47 C43.33 31.49 43.66 15.98 44 0 C46.31 0 48.62 0 51 0 C51 21.45 51 42.9 51 65 C46.51444244 63.87861061 45.74544771 63.01204708 42.8125 59.625 C42.02230469 58.7175 41.23210937 57.81 40.41796875 56.875 C37.35910994 53.2379724 34.37048207 49.54711197 31.3828125 45.8515625 C28.05376924 41.86762549 24.52767094 38.09110742 20.96875 34.3125 C16.8180335 29.68117423 12.93819058 24.81334404 9 20 C8.67 34.85 8.34 49.7 8 65 C5.36 65 2.72 65 0 65 C0 43.55 0 22.1 0 0 Z " fill="#FFFFFF" transform="translate(1123,446)"/>
<path d="M0 0 C12.54 0 25.08 0 38 0 C38 2.64 38 5.28 38 8 C28.1 8 18.2 8 8 8 C8 14.27 8 20.54 8 27 C17.9 27 27.8 27 38 27 C38 29.31 38 31.62 38 34 C28.1 34 18.2 34 8 34 C8 41.92 8 49.84 8 58 C17.9 58 27.8 58 38 58 C38 60.31 38 62.62 38 65 C25.46 65 12.92 65 0 65 C0 43.55 0 22.1 0 0 Z " fill="#FFFFFF" transform="translate(1041,446)"/>
<path d="M0 0 C12.21 0 24.42 0 37 0 C37 2.64 37 5.28 37 8 C27.1 8 17.2 8 7 8 C7 14.27 7 20.54 7 27 C16.9 27 26.8 27 37 27 C37 29.31 37 31.62 37 34 C27.1 34 17.2 34 7 34 C7 41.92 7 49.84 7 58 C16.9 58 26.8 58 37 58 C37 60.31 37 62.62 37 65 C24.79 65 12.58 65 0 65 C0 43.55 0 22.1 0 0 Z " fill="#FFFFFF" transform="translate(571,446)"/>
<path d="M0 0 C12.21 0 24.42 0 37 0 C37 2.64 37 5.28 37 8 C27.1 8 17.2 8 7 8 C7 14.27 7 20.54 7 27 C16.9 27 26.8 27 37 27 C37 29.31 37 31.62 37 34 C27.1 34 17.2 34 7 34 C7 41.92 7 49.84 7 58 C16.9 58 26.8 58 37 58 C37 60.31 37 62.62 37 65 C24.79 65 12.58 65 0 65 C0 43.55 0 22.1 0 0 Z " fill="#FFFFFF" transform="translate(393,446)"/>
<path d="M0 0 C29.78351151 0 29.78351151 0 35.5 4.1875 C39.69094389 8.90231188 41.63319819 13.5555622 41.34765625 19.94921875 C40.48295702 25.04997263 38.23495351 28.79671197 34.5625 32.375 C25.78226987 36.38001725 16.51269783 36 7 36 C7 45.57 7 55.14 7 65 C4.69 65 2.38 65 0 65 C0 43.55 0 22.1 0 0 Z M7 8 C7 14.6 7 21.2 7 28 C10.031875 28.061875 13.06375 28.12375 16.1875 28.1875 C17.13391357 28.21481201 18.08032715 28.24212402 19.05541992 28.27026367 C23.86383987 28.31773029 27.10983025 28.16462222 31 25 C33.32880181 21.78403559 33.3242679 18.89121476 33 15 C32.1184923 11.91472306 31.22601027 11.14478783 28.5 9.3984375 C24.03969374 7.61630621 20.36368598 7.66627621 15.625 7.8125 C12.77875 7.874375 9.9325 7.93625 7 8 Z " fill="#FFFFFF" transform="translate(839,446)"/>
<path d="M0 0 C3.44395464 2.08298555 6.81432961 4.32174994 8.60546875 8.0234375 C8.60546875 10.1484375 8.60546875 10.1484375 7.60546875 12.0234375 C5.04296875 13.2734375 5.04296875 13.2734375 2.60546875 14.0234375 C2.15816406 13.60191406 1.71085937 13.18039062 1.25 12.74609375 C-3.37489121 8.3740799 -3.37489121 8.3740799 -9.39453125 7.0234375 C-12.1285126 7.73300987 -12.1285126 7.73300987 -14.39453125 9.0234375 C-15.90342594 12.04122687 -15.89479401 13.64666387 -15.39453125 17.0234375 C-11.82807032 22.53524076 -6.78439007 26.40621463 -1.60546875 30.3125 C4.30653892 34.88751653 9.24751579 39.39909745 10.60546875 47.0234375 C10.91654609 52.65199304 9.75391706 57.11962957 6.17578125 61.515625 C1.93931328 65.58347733 -2.56245096 67.24571939 -8.39453125 67.5234375 C-14.36481902 67.23957412 -18.82381377 65.43733561 -23.1875 61.33984375 C-25.91723605 58.32481462 -27.62153862 56.07498506 -28.39453125 52.0234375 C-23.64453125 49.0234375 -23.64453125 49.0234375 -21.39453125 49.0234375 C-20.81703125 49.9309375 -20.23953125 50.8384375 -19.64453125 51.7734375 C-17.15779736 55.36538645 -15.31118098 57.10351116 -11.39453125 59.0234375 C-7.32138691 59.0234375 -5.02599347 58.39407837 -1.51953125 56.3359375 C1.16590983 53.41354573 1.68328887 51.99226367 1.60546875 48.0234375 C-1.40263527 40.83014528 -6.85563448 36.65901227 -12.99609375 32.0859375 C-19.06042706 27.50638196 -23.37404548 23.67953417 -24.76171875 15.98828125 C-25.11989105 10.52088639 -23.43675889 7.33325999 -20.39453125 3.0234375 C-14.97544636 -1.90300331 -6.74028993 -2.74889475 0 0 Z " fill="#FFFFFF" transform="translate(1316.39453125,445.9765625)"/>
<path d="M0 0 C2.64 0 5.28 0 8 0 C12.59927557 8.53230734 16.17053595 17.47472833 19.78588867 26.45263672 C20.82223932 29.02416649 21.86675745 31.59227426 22.91210938 34.16015625 C23.57339997 35.79407531 24.23422469 37.42818302 24.89453125 39.0625 C25.20695267 39.83013672 25.51937408 40.59777344 25.84126282 41.38867188 C28 46.76962123 28 46.76962123 28 49 C28.66 49 29.32 49 30 49 C30.172966 48.45613144 30.34593201 47.91226288 30.5241394 47.35191345 C32.34705744 41.73837545 34.44702964 36.3077325 36.7578125 30.87890625 C37.1063327 30.05293442 37.45485291 29.22696259 37.81393433 28.3759613 C38.91446563 25.77012597 40.01973084 23.16632872 41.125 20.5625 C41.87399366 18.78983847 42.6226942 17.01705306 43.37109375 15.24414062 C48.80269454 2.39461091 48.80269454 2.39461091 50 0 C52.64 0 55.28 0 58 0 C57.37211475 3.72112919 56.31828069 6.93007929 54.83862305 10.39770508 C54.16738655 11.9800872 54.16738655 11.9800872 53.48258972 13.59443665 C52.75450859 15.28985847 52.75450859 15.28985847 52.01171875 17.01953125 C51.26230766 18.7783387 51.26230766 18.7783387 50.49775696 20.57267761 C49.43996815 23.05246305 48.38040278 25.53139081 47.31762695 28.0090332 C45.96450303 31.16385673 44.61773672 34.32134291 43.27319622 37.47983265 C41.98047294 40.51508255 40.68351944 43.54852165 39.38671875 46.58203125 C38.66774666 48.26834404 38.66774666 48.26834404 37.93424988 49.98872375 C35.45745874 55.7579683 32.8789268 61.42004573 30 67 C27 66 27 66 25.97175598 64.29922485 C25.6650145 63.55933319 25.35827301 62.81944153 25.04223633 62.05712891 C24.68789017 61.21759674 24.33354401 60.37806458 23.96846008 59.51309204 C23.59343857 58.59353729 23.21841705 57.67398254 22.83203125 56.7265625 C22.43352463 55.77421722 22.03501801 54.82187195 21.62443542 53.84066772 C20.34348477 50.7729525 19.07777089 47.69921099 17.8125 44.625 C16.97952549 42.62197557 16.14555169 40.6193664 15.31054688 38.6171875 C13.66493914 34.6683268 12.02658823 30.71656951 10.39306641 26.76269531 C8.81569088 22.95152738 7.21930738 19.14932332 5.60302734 15.35449219 C5.22877121 14.47449554 4.85451508 13.5944989 4.46891785 12.68783569 C3.76400315 11.03374163 3.05622872 9.38086243 2.34516907 7.72940063 C0 2.22055803 0 2.22055803 0 0 Z " fill="#FFFFFF" transform="translate(469,446)"/>
<path d="M0 0 C12.21 0 24.42 0 37 0 C37 2.64 37 5.28 37 8 C32.05 8 27.1 8 22 8 C22 26.81 22 45.62 22 65 C19.69 65 17.38 65 15 65 C15 46.19 15 27.38 15 8 C10.05 8 5.1 8 0 8 C0 5.36 0 2.72 0 0 Z " fill="#FFFFFF" transform="translate(1216,446)"/>
<path d="M0 0 C2.64 0 5.28 0 8 0 C8 19.14 8 38.28 8 58 C15.92 58 23.84 58 32 58 C32 60.31 32 62.62 32 65 C21.44 65 10.88 65 0 65 C0 43.55 0 22.1 0 0 Z " fill="#FFFFFF" transform="translate(652,446)"/>
</svg>
