<svg width="100%" height="50px" viewBox="0 0 253 64" fill="none" xmlns="http://www.w3.org/2000/svg"> <path d="M10.4275 0.0248705C24.6603 -0.0207253 38.8974 0.0290155 53.1344 0C53.1219 1.98964 53.1427 3.97927 53.1261 5.97306C38.8891 5.96062 24.6562 6.00207 10.4233 5.95233C10.4441 3.97513 10.4441 2.00207 10.4275 0.0248705Z" fill="black"></path> <path d="M0.0124444 10.4812C1.9746 10.4936 3.93675 10.5019 5.90305 10.4688C5.94453 24.7403 5.92794 39.0104 5.91134 53.2819C3.9409 53.2612 1.97045 53.257 0 53.2819C0.0124449 39.0145 -0.0124454 24.7485 0.0124444 10.4812Z" fill="black"></path> <path d="M57.6464 10.5879C59.6293 10.5589 61.608 10.4525 63.5867 10.4815C63.6241 24.7447 63.6116 39.0107 63.595 53.2739C61.608 53.2698 59.6251 53.2615 57.6381 53.2656C57.6823 39.0397 57.6712 24.8138 57.6464 10.5879Z" fill="black"></path> <path d="M237.376 16.9178C241.148 16.5075 245.216 16.7451 248.513 18.8177C250.27 19.9051 251.436 21.7013 252.118 23.6218C250.394 24.3472 248.678 25.103 246.982 25.8906C246.121 23.9092 244.441 22.1337 242.208 21.8463C240.052 21.5963 237.675 21.494 235.721 22.5759C233.771 23.5638 234.03 26.8343 236.004 27.6384C240.729 29.4843 246.607 28.676 250.508 32.426C253.077 34.8702 253.152 39.083 251.449 42.0329C249.937 44.712 246.957 46.1766 244.034 46.7375C241.735 47.0899 239.387 47.0774 237.084 46.8232C233.356 46.3631 229.772 44.4439 227.585 41.36C229.026 40.0888 230.45 38.7956 231.784 37.4139C233.611 40.1123 236.694 41.8933 239.974 41.9541C241.995 42.008 244.526 41.9748 245.771 40.0874C246.744 38.7956 246.403 36.8667 245.187 35.8622C243.997 35.0125 242.523 34.7541 241.115 34.504C237.831 33.9058 234.366 33.5355 231.463 31.7434C227.958 29.693 227.399 24.6097 229.451 21.3489C231.137 18.6408 234.326 17.3116 237.376 16.9178Z" fill="black"></path> <path d="M14.3241 17.4301C16.2945 17.4011 18.265 17.4343 20.2313 17.4053C20.2105 27.0495 20.2064 36.6923 20.2313 46.3365C18.2608 46.2992 16.2904 46.3241 14.3199 46.3034C14.3891 36.6813 14.3766 27.0536 14.3241 17.4301Z" fill="black"></path> <path d="M28.8308 17.4092C30.8261 17.4299 32.8173 17.4216 34.8127 17.4092C34.7878 27.0451 34.7795 36.681 34.8168 46.3156C32.8215 46.3114 30.8261 46.3031 28.8308 46.328C28.8474 36.6893 28.8474 27.0492 28.8308 17.4092Z" fill="black"></path> <path d="M43.4176 17.4053C45.3839 17.4301 47.346 17.4219 49.3123 17.4094C49.3082 27.0536 49.304 36.6923 49.3165 46.3365C47.3419 46.3075 45.3714 46.2992 43.401 46.3241C43.4425 36.6854 43.4093 27.0453 43.4176 17.4053Z" fill="black"></path> <path d="M76.6898 17.4257C79.0709 17.3967 81.452 17.4755 83.8332 17.3926C86.5876 24.6492 89.3255 31.9183 91.8712 39.2482C94.7654 32.0123 97.3027 24.6326 100.189 17.3926C102.512 17.4548 104.844 17.434 107.172 17.4133C107.151 27.0492 107.134 36.6893 107.18 46.328C105.316 46.3073 103.456 46.299 101.596 46.3363C101.786 39.7649 101.646 33.1895 101.69 26.6181C99.1529 33.1646 96.7676 39.7732 94.2758 46.3363C92.6953 46.3073 91.119 46.299 89.5385 46.328C87.0965 39.7732 84.4568 33.2876 82.2236 26.6624C82.0273 33.2047 82.1738 39.7719 82.1586 46.3238C80.3278 46.299 78.5012 46.3155 76.6746 46.3031C76.7354 36.681 76.7022 27.0534 76.6898 17.4257Z" fill="black"></path> <path d="M112.837 17.4341C119.82 17.4175 126.807 17.4424 133.79 17.4258C133.757 19.1488 133.757 20.8759 133.782 22.603C128.79 22.6196 123.798 22.5947 118.806 22.6154C118.819 24.699 118.831 26.7867 118.802 28.8745C123.446 28.9118 128.092 28.8952 132.735 28.8786C132.772 30.6099 132.756 32.3453 132.76 34.0793C128.104 34.0669 123.45 34.0462 118.798 34.0835C118.84 36.442 118.815 38.7964 118.802 41.155C123.88 41.2006 128.963 41.1964 134.044 41.155C134.024 42.8779 134.028 44.6051 134.032 46.3322C126.963 46.2741 119.893 46.3446 112.824 46.2949C112.877 36.6769 112.854 27.0534 112.837 17.4341Z" fill="black"></path> <path d="M139.495 17.4131C143.449 17.4587 147.402 17.4007 151.36 17.4421C154.22 17.5941 157.279 18.0901 159.537 19.9982C162.227 22.2918 162.633 26.307 161.672 29.5278C161.109 31.6487 159.357 33.1823 157.477 34.1633C159.558 38.2117 161.627 42.2642 163.68 46.3264C161.472 46.3057 159.263 46.3015 157.058 46.3305C155.186 42.716 153.548 38.9716 151.532 35.44C149.496 35.5298 147.46 35.4732 145.423 35.4815C145.419 39.0918 145.382 42.7008 145.448 46.3112C143.457 46.3361 141.466 46.2988 139.479 46.3402C139.516 36.6974 139.487 27.0532 139.495 17.4131ZM145.427 22.3817C145.39 25.0801 145.436 27.7758 145.398 30.4756C148.128 30.3236 150.957 30.8362 153.622 30.0943C156.828 29.2652 156.922 23.7896 153.716 22.9039C151.04 22.1191 148.182 22.4839 145.427 22.3817Z" fill="black"></path> <path d="M165.847 46.3087C169.727 36.6935 173.474 27.0217 177.354 17.4065C179.358 17.4438 181.366 17.4479 183.368 17.4023C187.235 27.03 190.97 36.706 194.871 46.3212C192.707 46.3129 190.548 46.317 188.389 46.3046C187.592 44.1063 186.758 41.915 185.958 39.7167C182.144 39.7084 178.33 39.7208 174.517 39.7084C173.708 41.915 172.915 44.1298 172.079 46.3253C170.002 46.288 167.921 46.3419 165.847 46.3087ZM176.307 34.7771C178.93 34.6956 181.558 34.6956 184.181 34.773C182.909 31.1585 181.566 27.5619 180.15 23.9972C179.004 27.6407 177.498 31.1516 176.307 34.7771Z" fill="black"></path> <path d="M208.393 17.4219C210.418 17.426 212.449 17.4343 214.477 17.4219C218.312 27.0537 222.084 36.7089 225.956 46.3283C223.796 46.3034 221.637 46.3075 219.482 46.3158C218.714 44.1051 217.843 41.9303 217.071 39.7196C213.254 39.7031 209.436 39.7155 205.618 39.7238C204.757 41.9055 204.013 44.1328 203.168 46.3241C201.091 46.2993 199.014 46.3034 196.936 46.3366C200.787 36.7103 204.588 27.0661 208.393 17.4219ZM207.363 34.6917C210.007 34.798 212.655 34.5604 215.295 34.7856C214.006 31.1352 212.586 27.529 211.26 23.8951C210.097 27.5414 208.693 31.1062 207.363 34.6917Z" fill="black"></path> <path d="M10.4233 57.8178C24.6562 57.7681 38.8932 57.8137 53.1302 57.793C53.151 59.7702 53.1095 61.7432 53.1427 63.7163C38.9015 63.7038 24.6645 63.737 10.4233 63.6997C10.4482 61.7405 10.4441 59.7785 10.4233 57.8178Z" fill="black"></path></svg>