<?xml version="1.0" encoding="UTF-8"?>
<svg version="1.1" xmlns="http://www.w3.org/2000/svg" width="300" height="55">
<path d="M0 0 C1.2065625 0.0309375 1.2065625 0.0309375 2.4375 0.0625 C3.0975 2.3725 3.7575 4.6825 4.4375 7.0625 C7.68258611 6.05806858 10.64352588 4.95948706 13.6875 3.4375 C16.4375 2.0625 16.4375 2.0625 18.4375 2.0625 C18.4375 1.4025 18.4375 0.7425 18.4375 0.0625 C19.4275 0.0625 20.4175 0.0625 21.4375 0.0625 C22.0975 3.6925 22.7575 7.3225 23.4375 11.0625 C16.5075 14.6925 9.5775 18.3225 2.4375 22.0625 C2.7675 24.0425 3.0975 26.0225 3.4375 28.0625 C9.0475 25.0925 14.6575 22.1225 20.4375 19.0625 C23.00366632 22.91174948 22.98847676 25.4974304 23.4375 30.0625 C20.2193304 32.08062109 16.98633602 34.07366513 13.75 36.0625 C12.83798828 36.63484375 11.92597656 37.2071875 10.98632812 37.796875 C10.10009766 38.33828125 9.21386719 38.8796875 8.30078125 39.4375 C7.48907471 39.94023438 6.67736816 40.44296875 5.84106445 40.9609375 C3.16726095 42.18635156 1.34440562 42.2796696 -1.5625 42.0625 C-2.5525 39.7525 -3.5425 37.4425 -4.5625 35.0625 C-5.46613281 35.5678125 -6.36976562 36.073125 -7.30078125 36.59375 C-8.49200551 37.2503303 -9.68342185 37.90656218 -10.875 38.5625 C-11.46990234 38.89636719 -12.06480469 39.23023438 -12.67773438 39.57421875 C-15.52078844 41.13075114 -17.26910988 42.0625 -20.5625 42.0625 C-22.8974917 38.41407547 -22.64164039 35.30145694 -22.5625 31.0625 C-19.45966979 29.58051792 -16.35501273 28.10240317 -13.25 26.625 C-12.36892578 26.20412109 -11.48785156 25.78324219 -10.58007812 25.34960938 C-9.73251953 24.94677734 -8.88496094 24.54394531 -8.01171875 24.12890625 C-6.84129028 23.5711853 -6.84129028 23.5711853 -5.6472168 23.00219727 C-3.5625 22.0625 -3.5625 22.0625 -0.5625 21.0625 C-1.2225 19.0825 -1.8825 17.1025 -2.5625 15.0625 C-4.24279297 15.94615234 -4.24279297 15.94615234 -5.95703125 16.84765625 C-7.42941725 17.60729489 -8.90208845 18.3663809 -10.375 19.125 C-11.48198242 19.70991211 -11.48198242 19.70991211 -12.61132812 20.30664062 C-13.32353516 20.67080078 -14.03574219 21.03496094 -14.76953125 21.41015625 C-15.4241333 21.75054932 -16.07873535 22.09094238 -16.75317383 22.44165039 C-18.5625 23.0625 -18.5625 23.0625 -21.5625 22.0625 C-23.23382807 18.71984387 -23.62377546 15.60644643 -22.5625 12.0625 C-19.77119615 9.43144765 -16.53445579 7.83825763 -13.125 6.125 C-11.35536923 5.17857148 -9.58583286 4.23196641 -7.81640625 3.28515625 C-7.02564697 2.88047119 -6.2348877 2.47578613 -5.42016602 2.05883789 C-1.65681978 0.04041024 -1.65681978 0.04041024 0 0 Z " fill="#FFFFFF" transform="translate(28.5625,4.9375)"/>
<path d="M0 0 C5.13308791 2.61320839 8.1797908 5.53937241 10 11 C10.3002496 17.00499202 10.39236754 22.66540771 6.73046875 27.76953125 C3.1660099 31.47275249 0.11435134 32.45677738 -5 32.6875 C-12.00301524 32.31938155 -15.36404027 29.89105261 -19.9375 24.875 C-21.63827863 20.27289311 -21.64049425 15.83928988 -21 11 C-16.48353099 1.79978536 -9.73311905 -1.09142502 0 0 Z M-14 12 C-8.39 12 -2.78 12 3 12 C1.5 8 1.5 8 -1 7 C-8.23031078 6.24756208 -8.23031078 6.24756208 -14 12 Z M-14 19 C-11.87607393 23.52695208 -11.87607393 23.52695208 -7.8125 25.8125 C-3.85282635 26.07647824 -1.43056231 24.91319821 2 23 C2.33 21.68 2.66 20.36 3 19 C-2.61 19 -8.22 19 -14 19 Z " fill="#FFFFFF" transform="translate(142,15)"/>
<path d="M0 0 C7.59 0 15.18 0 23 0 C23 0.66 23 1.32 23 2 C23.7425 2.20625 24.485 2.4125 25.25 2.625 C28.93646177 4.46823088 30.13871846 6.34637327 32 10 C32.6197472 14.33823043 32.3342226 16.37930088 30.25 20.25 C25.71942131 25.78737396 25.71942131 25.78737396 22.08496094 26.23681641 C19.79933826 26.29530475 17.53511034 26.2613966 15.25 26.1875 C14.45722656 26.17396484 13.66445312 26.16042969 12.84765625 26.14648438 C10.89814436 26.11125223 8.94898374 26.05744821 7 26 C7 31.28 7 36.56 7 42 C4.69 42 2.38 42 0 42 C0 28.14 0 14.28 0 0 Z M7 7 C7 11.29 7 15.58 7 20 C9.8153125 20.061875 9.8153125 20.061875 12.6875 20.125 C13.74324219 20.14820313 14.79898438 20.17140625 15.88671875 20.1953125 C19.07168276 19.99550296 21.20243568 19.52272488 24 18 C25.0704232 14.40643641 25.19105377 12.5731613 24 9 C20.59542024 6.55194503 17.32996232 6.79340075 13.25 6.875 C11.1875 6.91625 9.125 6.9575 7 7 Z " fill="#FFFFFF" transform="translate(67,5)"/>
<path d="M0 0 C3.5 1.8125 3.5 1.8125 6 4 C6.5775 4.474375 7.155 4.94875 7.75 5.4375 C10.81410807 9.26763509 11.40631172 13.15963081 11.2421875 18.01953125 C10.58129921 23.42389196 7.42976281 27.52138225 3.2890625 30.8515625 C-1.58051747 33.29466235 -6.75569816 32.98413221 -12 32 C-16.41543122 29.85256331 -18.50152803 26.82559421 -21 22.6875 C-22.61647518 16.72674779 -22.11396891 12.18667971 -19.3125 6.6875 C-13.66604926 0.1254086 -8.42362644 -1.266051 0 0 Z M-12.5 8.5625 C-14.51221621 11.83235134 -14.93382801 14.16202455 -15 18 C-14.18292938 21.38437013 -14.18292938 21.38437013 -12 24 C-7.73106 26.052375 -5.74759751 26.22060254 -1.1875 24.875 C1.91486748 23.26987141 1.91486748 23.26987141 3.5 21.3125 C4.50176814 16.67932233 3.93852708 12.5642118 1.5 8.5 C-3.0164682 5.79011908 -8.02702032 5.7668877 -12.5 8.5625 Z " fill="#FFFFFF" transform="translate(239,15)"/>
<path d="M0 0 C3.74853825 1.43561039 4.74146115 2.58633784 6.875 6 C8 9 8 9 7 12 C5.02 12 3.04 12 1 12 C0.34 10.68 -0.32 9.36 -1 8 C-3.64 8 -6.28 8 -9 8 C-9.33 8.99 -9.66 9.98 -10 11 C-8.67935547 11.23783203 -8.67935547 11.23783203 -7.33203125 11.48046875 C3.35150443 13.62666182 3.35150443 13.62666182 6.3125 16.25 C8.5331794 19.86888494 8.74552693 21.82504921 8 26 C5.5625 28.875 5.5625 28.875 3 31 C2.67 31.33 2.34 31.66 2 32 C-0.07823652 32.1790571 -2.16453717 32.26807871 -4.25 32.3125 C-5.38953125 32.34988281 -6.5290625 32.38726562 -7.703125 32.42578125 C-11.6344477 31.91806303 -13.19022045 30.72863069 -16 28 C-17.85141842 25.39118313 -18.06204237 24.45497738 -17.625 21.25 C-17.41875 20.5075 -17.2125 19.765 -17 19 C-15.02 19 -13.04 19 -11 19 C-10.690625 20.2065625 -10.690625 20.2065625 -10.375 21.4375 C-9.92125 22.283125 -9.4675 23.12875 -9 24 C-5.40643641 25.0704232 -3.5731613 25.19105377 0 24 C0 23.01 0 22.02 0 21 C-1.21236328 20.76216797 -1.21236328 20.76216797 -2.44921875 20.51953125 C-7.27966347 19.46487444 -11.15149668 18.58742538 -15.25 15.75 C-17.5494984 12.13650252 -17.75149268 10.20835902 -17 6 C-11.84527619 -0.23992882 -7.74242814 -0.65944972 0 0 Z " fill="#FFFFFF" transform="translate(174,15)"/>
<path d="M0 0 C4.86134773 2.29809165 7.48074996 5.26380992 10 10 C9.67 10.99 9.34 11.98 9 13 C7.02 13.33 5.04 13.66 3 14 C2.71125 13.195625 2.4225 12.39125 2.125 11.5625 C1.26737432 8.8673532 1.26737432 8.8673532 -1 8 C-4.08085095 7.53014049 -6.92732558 7.44430356 -10 8 C-12.87640333 10.31358311 -12.87640333 10.31358311 -14 14 C-14.01002626 17.08307586 -13.6167259 19.98340591 -13 23 C-7.39242111 24.74467052 -7.39242111 24.74467052 -1.625 24.4375 C1.20173676 23.20463642 1.20173676 23.20463642 2.375 20.375 C2.58125 19.59125 2.7875 18.8075 3 18 C5.31 18.66 7.62 19.32 10 20 C8.96699381 24.82069557 7.13255516 27.83363554 3.32421875 30.8515625 C-1.56880678 33.26929276 -6.74108547 33.005478 -12 32 C-16.34990358 29.71904215 -19.19874561 26.56923705 -21 22 C-21.75300292 16.38022031 -22.10117915 10.7774429 -18.8125 5.9375 C-13.39238376 -0.21831069 -7.9989795 -1.04692526 0 0 Z " fill="#FFFFFF" transform="translate(206,15)"/>
<path d="M0 0 C2.31 0 4.62 0 7 0 C7 3.3 7 6.6 7 10 C8.98 10 10.96 10 13 10 C13 12.31 13 14.62 13 17 C11.02 17 9.04 17 7 17 C7.33 22.61 7.66 28.22 8 34 C11.62326739 35.2077558 12.64146369 34.54311128 16 33 C16.33 33.99 16.66 34.98 17 36 C17.66 36 18.32 36 19 36 C19 36.99 19 37.98 19 39 C16.15188706 41.79537011 13.94017448 42.45194909 10 42.5 C6.19673965 42.39357593 5.36137017 42.32611454 2.4375 39.6875 C-0.07528317 34.98968799 -0.12154824 31.0132876 -0.0625 25.8125 C-0.05798828 25.06291016 -0.05347656 24.31332031 -0.04882812 23.54101562 C-0.03706354 21.69397617 -0.01912865 19.84697787 0 18 C-1.98 17.34 -3.96 16.68 -6 16 C-5.67 14.02 -5.34 12.04 -5 10 C-3.35 9.67 -1.7 9.34 0 9 C0 6.03 0 3.06 0 0 Z " fill="#FFFFFF" transform="translate(276,5)"/>
<path d="M0 0 C2.31 0 4.62 0 7 0 C7 3.3 7 6.6 7 10 C8.98 10 10.96 10 13 10 C13 12.31 13 14.62 13 17 C11.02 17 9.04 17 7 17 C7.33 22.61 7.66 28.22 8 34 C11.62326739 35.2077558 12.64146369 34.54311128 16 33 C18 36 18 36 17.75 38.0625 C17 40 17 40 15 42 C10.39499693 42.68994819 6.30182948 42.92080622 2.4375 40.1875 C0.34470238 37.00280796 -0.12404848 34.49083629 -0.09765625 30.76953125 C-0.09282227 29.56586914 -0.09282227 29.56586914 -0.08789062 28.33789062 C-0.07951172 27.50451172 -0.07113281 26.67113281 -0.0625 25.8125 C-0.05798828 24.96751953 -0.05347656 24.12253906 -0.04882812 23.25195312 C-0.03705403 21.16793845 -0.0191189 19.08396023 0 17 C-1.65 17 -3.3 17 -5 17 C-5 14.69 -5 12.38 -5 10 C-3.35 10 -1.7 10 0 10 C0 6.7 0 3.4 0 0 Z " fill="#FFFFFF" transform="translate(256,5)"/>
<path d="M0 0 C6.66666667 0 13.33333333 0 20 0 C19.67 2.31 19.34 4.62 19 7 C17.93458984 7.18175781 17.93458984 7.18175781 16.84765625 7.3671875 C15.92855469 7.53476562 15.00945312 7.70234375 14.0625 7.875 C12.68771484 8.11863281 12.68771484 8.11863281 11.28515625 8.3671875 C10.53105469 8.57601563 9.77695313 8.78484375 9 9 C7.79729036 11.40541929 7.79683337 13.10366591 7.68359375 15.7890625 C7.64169922 16.73007812 7.59980469 17.67109375 7.55664062 18.640625 C7.49766602 20.11789063 7.49766602 20.11789063 7.4375 21.625 C7.39431641 22.61757813 7.35113281 23.61015625 7.30664062 24.6328125 C7.20038931 27.08839838 7.09835036 29.54408703 7 32 C4.69 32 2.38 32 0 32 C0 21.44 0 10.88 0 0 Z " fill="#FFFFFF" transform="translate(103,15)"/>
</svg>
