<?xml version="1.0" encoding="UTF-8"?>
<svg version="1.1" xmlns="http://www.w3.org/2000/svg" width="2481" height="734">
<path d="M0 0 C22.44 0 44.88 0 68 0 C73.62090865 11.24181729 73.62090865 11.24181729 75.6640625 16.17578125 C76.13602051 17.30902832 76.60797852 18.44227539 77.09423828 19.60986328 C77.34175842 20.20865295 77.58927856 20.80744263 77.84429932 21.42437744 C79.25314511 24.8316673 80.67478351 28.23363443 82.09375 31.63671875 C82.55589401 32.74654114 82.55589401 32.74654114 83.02737427 33.87878418 C87.02573365 43.47525305 91.07773823 53.04908211 95.125 62.625 C95.93900908 64.5518205 96.75297356 66.47865985 97.56689453 68.40551758 C99.22053459 72.32022097 100.87435878 76.23484648 102.52832031 80.14941406 C106.12659253 88.66616241 109.72250577 97.1839067 113.31854248 105.70159912 C115.29559318 110.3844424 117.27280493 115.06721768 119.25 119.75 C120.04166743 121.62499968 120.8333341 123.49999968 121.625 125.375 C122.016875 126.303125 122.40875 127.23125 122.8125 128.1875 C136.66666667 161 150.52083333 193.8125 164.375 226.625 C164.76682465 227.55300415 165.15864929 228.4810083 165.56234741 229.43713379 C166.35452731 231.31335255 167.1467026 233.18957325 167.93887329 235.0657959 C169.91014987 239.7346648 171.88150485 244.40350056 173.85302734 249.07226562 C177.50942991 257.7312241 181.165109 266.39048562 184.8180542 275.05090332 C186.51292361 279.06897453 188.20822938 283.08686157 189.90356445 287.10473633 C190.69886503 288.98989915 191.49396025 290.87514862 192.28881836 292.76049805 C197.81193166 305.86075535 203.38594441 318.93845232 209 332 C210.58521177 329.62218235 211.56413982 327.81817885 212.57788086 325.21435547 C212.8775325 324.44983566 213.17718414 323.68531586 213.48591614 322.89762878 C213.97048531 321.64506035 213.97048531 321.64506035 214.46484375 320.3671875 C214.80968307 319.48416458 215.1545224 318.60114166 215.5098114 317.69136047 C216.65586454 314.75392071 217.79670095 311.81448384 218.9375 308.875 C219.74435153 306.80368425 220.55148528 304.73247841 221.35888672 302.66137695 C223.91137429 296.10969758 226.45638127 289.55512682 229 283 C229.40764587 281.94975647 229.81529175 280.89951294 230.23529053 279.81744385 C233.83686132 270.53814943 237.43599239 261.25791116 241.03100586 251.97607422 C246.32321143 238.31334988 251.63897203 224.66003545 256.97180176 211.01312256 C262.46428119 196.95580156 267.92413465 182.88600394 273.375 168.8125 C279.91962637 151.91546465 286.50028783 135.03298855 293.11218262 118.16217041 C299.38306092 102.15908973 305.60921351 86.13899562 311.81640625 70.1111145 C318.18790275 53.65913644 324.58740247 37.21831299 331.01416016 20.7878418 C331.48699936 19.57816742 331.48699936 19.57816742 331.96939087 18.34405518 C332.54765986 16.86473885 333.12637077 15.38559515 333.70565796 13.90667725 C335.51198361 9.28506835 337.25730774 4.64717937 339 0 C361.44 0 383.88 0 407 0 C408.80736555 82.13962135 410.51510569 164.28125694 412.17133045 246.4240551 C412.18552899 247.1282345 412.19972753 247.83241389 412.21435633 248.55793206 C412.33547059 254.56474408 412.33547059 254.56474408 412.38639324 257.09081967 C412.60087738 267.72909141 412.81691244 278.36733086 413.03378296 289.0055542 C413.28439905 301.29979189 413.53283637 313.59407134 413.77875221 325.88840401 C413.90625313 332.26055825 414.03461792 338.6326918 414.16539001 345.00477982 C414.28701201 350.93323019 414.40589459 356.86172962 414.52279818 362.79027486 C414.56539498 364.92803038 414.60890747 367.06576794 414.65351808 369.20348239 C414.99223348 385.475551 415 401.71815637 415 418 C393.22 418 371.44 418 349 418 C348.20501081 388.57897157 347.67660564 359.1643853 347.29281878 329.73555803 C347.24527051 326.10113722 347.19703272 322.46672617 347.14857674 318.83231735 C346.9775858 306.00608082 346.80901539 293.1798152 346.64282227 280.35351562 C346.50768921 269.92866134 346.36893979 259.50386272 346.22680664 249.07910156 C345.42733214 190.38415647 344.71859476 131.70113838 345 73 C344.01 73 343.02 73 342 73 C341.90823486 73.7945459 341.81646973 74.5890918 341.72192383 75.40771484 C340.79897777 80.00028445 339.17097092 84.13054413 337.44921875 88.4765625 C337.08363861 89.41336349 336.71805847 90.35016449 336.34140015 91.31535339 C335.54670204 93.34994551 334.74937751 95.38351328 333.94973755 97.41616821 C332.2206267 101.81187475 330.50435915 106.21256161 328.78715515 110.6129303 C327.88523511 112.92368312 326.98264667 115.23417516 326.079422 117.54441833 C321.36118641 129.61616559 316.70845782 141.71279339 312.0625 153.8125 C311.22688071 155.98717039 310.39118696 158.16181217 309.55541992 160.33642578 C307.87534757 164.70805404 306.19560763 169.0798098 304.51611328 173.45166016 C300.76322614 183.21986482 297.00594453 192.98637928 293.24899292 202.75302124 C291.16581516 208.16861155 289.08292199 213.58431131 287 219 C286.16666803 221.16666719 285.3333347 223.33333386 284.5 225.5 C284.0875 226.5725 283.675 227.645 283.25 228.75 C259.49999991 290.50000022 259.49999991 290.50000022 258.25012207 293.74967957 C257.41637911 295.9174133 256.58263888 298.08514808 255.74890137 300.25288391 C253.67185765 305.65323305 251.59476728 311.05356423 249.51757812 316.45385742 C245.25024631 327.54825973 240.98378885 338.64299724 236.71875 349.73828125 C232.93433136 359.58314682 229.1480521 369.42729434 225.35929871 379.27049255 C223.24669479 384.75918688 221.13590096 390.24856983 219.0272522 395.73878479 C217.88265897 398.71732982 216.73591942 401.6950442 215.58837891 404.67245483 C215.07718745 406.0000768 214.56691078 407.32805142 214.05761719 408.65640259 C213.38069619 410.42161264 212.70023835 412.18546525 212.01953125 413.94921875 C211.64932861 414.91174561 211.27912598 415.87427246 210.89770508 416.8659668 C210 419 210 419 209 420 C206.26105915 420.08858646 203.5474673 420.11523479 200.80859375 420.09765625 C199.98875504 420.0962413 199.16891632 420.09482635 198.32423401 420.09336853 C195.69528618 420.08775289 193.06642227 420.07519779 190.4375 420.0625 C188.65950643 420.05748701 186.88151154 420.05292376 185.10351562 420.04882812 C180.73564455 420.03777839 176.36783652 420.02050331 172 420 C167.53105782 411.64640366 163.97764369 402.93966398 160.38821411 394.18560791 C158.51132041 389.60883918 156.62163325 385.03734584 154.734375 380.46484375 C154.34351212 379.51681885 153.95264923 378.56879395 153.54994202 377.59204102 C149.42340433 367.58795371 145.24632191 357.60523594 141.0625 347.625 C140.30962494 345.82821759 139.55677676 344.03142392 138.80395508 342.23461914 C137.29162514 338.62536918 135.77896155 335.01625928 134.26611328 331.40722656 C130.88248869 323.33453463 127.50341363 315.25993827 124.12399292 307.18548584 C122.24951476 302.70691264 120.3747425 298.22846255 118.5 293.75 C117.74999859 291.95833392 116.99999859 290.16666726 116.25 288.375 C115.87875 287.488125 115.5075 286.60125 115.125 285.6875 C93.75 234.62500001 93.75 234.62500001 92.62496948 231.93742371 C91.87507443 230.14601 91.12517615 228.35459765 90.37527466 226.56318665 C88.49864256 222.08016067 86.62206666 217.59711119 84.74560547 213.11401367 C81.39016754 205.09760923 78.03436806 197.08135739 74.67640686 189.06600952 C65.47732871 167.10796772 56.29945622 145.14124611 47.15380859 123.16088867 C43.40310629 114.14907084 39.64533947 105.14057329 35.84765625 96.1484375 C35.53442917 95.40585693 35.22120209 94.66327637 34.89848328 93.89819336 C33.47141703 90.51522161 32.04123227 87.13365379 30.60424805 83.75488281 C30.12125244 82.61116211 29.63825684 81.46744141 29.140625 80.2890625 C28.72329102 79.30631348 28.30595703 78.32356445 27.87597656 77.31103516 C27 75 27 75 27 73 C26.34 73 25.68 73 25 73 C25.03779902 74.46129223 25.03779902 74.46129223 25.07636166 75.95210552 C25.8634204 106.63049261 26.41353462 137.31112222 26.90911031 167.99544549 C26.97362723 171.98583689 27.03854325 175.97622169 27.10360527 179.96660423 C27.28573178 191.14149545 27.46734642 202.31639464 27.6467371 213.49133015 C27.65807242 214.19742509 27.66940775 214.90352003 27.68108657 215.6310118 C27.70403505 217.06063568 27.72698325 218.49025957 27.74993116 219.91988347 C27.76700503 220.98349989 27.76700503 220.98349989 27.78442383 222.06860352 C27.79582079 222.77860369 27.80721774 223.48860387 27.81896006 224.2201192 C28.00321294 235.69211502 28.19141381 247.1640423 28.38135714 258.63594518 C28.57903385 270.57831954 28.77335379 282.52074498 28.96453851 294.46322507 C29.07089566 301.10254105 29.17855659 307.74183051 29.28978157 314.38106728 C29.86695732 348.92422095 30.10691172 383.45204439 30 418 C16.47 418 2.94 418 -11 418 C-9.39976172 345.67506312 -7.5854671 273.35553514 -5.75852013 201.03604126 C-5.66770598 197.44101975 -5.57689362 193.84599819 -5.48608398 190.25097656 C-5.46354815 189.3588867 -5.44101232 188.46679683 -5.41779359 187.54767394 C-5.04776843 172.89750297 -4.68055556 158.24726285 -4.31443851 143.59699374 C-3.93362776 128.36041075 -3.55048273 113.1238879 -3.16501147 97.88742208 C-2.95053951 89.40788034 -2.73703622 80.92831686 -2.52616692 72.44868469 C-2.34815808 65.29080233 -2.1680137 58.13297767 -1.98511665 50.97521847 C-1.89227748 47.33946395 -1.80040698 43.70369227 -1.71129227 40.06784439 C-1.61442351 36.11679587 -1.51267109 32.16588114 -1.4105072 28.21496582 C-1.3836567 27.0884632 -1.35680619 25.96196057 -1.32914203 24.80132151 C-1.10845472 16.49829091 -0.5538107 8.3071605 0 0 Z " fill="#FFFFFF" transform="translate(780,13)"/>
<path d="M0 0 C9.08393135 -0.34216218 18.16461477 -0.61468622 27.25362968 -0.77718258 C31.47521712 -0.85521322 35.69219808 -0.96082417 39.91113281 -1.1315918 C43.98997506 -1.2956393 48.06441731 -1.38445504 52.14630508 -1.42315865 C53.69617178 -1.45069897 55.24581901 -1.5044988 56.79378891 -1.58595085 C68.57357962 -2.18064195 68.57357962 -2.18064195 72.62108231 1.45687866 C75.63989327 5.05753963 77.90907318 9.01239354 80.04772758 13.18152523 C81.36373282 15.69459005 82.90762693 18.03741678 84.4765625 20.3984375 C85.5276151 22.05629518 86.57707406 23.7151642 87.625 25.375 C88.8278136 27.27233287 90.03095151 29.16946016 91.234375 31.06640625 C91.84990234 32.03723145 92.46542969 33.00805664 93.09960938 34.00830078 C96.34531253 39.11786482 99.61021974 44.21511205 102.875 49.3125 C103.87587646 50.87556885 103.87587646 50.87556885 104.89697266 52.47021484 C106.2538192 54.5890857 107.61075301 56.70790066 108.96777344 58.82666016 C111.64792069 63.01173392 114.32683186 67.19759808 117.00561523 71.38354492 C118.33315969 73.45798548 119.66079612 75.53236718 120.98852539 77.60668945 C124.38560531 82.9140283 127.78159965 88.22205706 131.17578125 93.53125 C139.87014098 107.12884141 139.87014098 107.12884141 148.625 120.6875 C153.27987453 127.86224113 157.87514009 135.0740544 162.46191406 142.29248047 C168.93270315 152.47409755 175.43915848 162.63277645 181.94580078 172.79150391 C184.02635707 176.04116766 186.10522139 179.29190786 188.18359375 182.54296875 C196.8739221 196.13478083 196.8739221 196.13478083 205.625 209.6875 C210.27987453 216.86224113 214.87514009 224.0740544 219.46191406 231.29248047 C225.93270315 241.47409755 232.43915848 251.63277645 238.94580078 261.79150391 C241.02635707 265.04116766 243.10522139 268.29190786 245.18359375 271.54296875 C251.39762563 281.26171461 257.61885777 290.97497206 263.89941406 300.65087891 C268.44559816 307.6660224 272.92643382 314.72268977 277.40673828 321.7800293 C277.97505371 322.6750415 278.54336914 323.57005371 279.12890625 324.4921875 C279.63494385 325.28995605 280.14098145 326.08772461 280.66235352 326.90966797 C281.75599415 328.61869354 282.87451641 330.31177462 284 332 C284.08261969 315.56026057 283.82609545 299.14108885 283.44921875 282.70605469 C283.3898865 280.03880262 283.33075355 277.37154685 283.2718811 274.70428467 C283.14568007 269.0025168 283.01780792 263.30078851 282.88882446 257.59908295 C282.70157972 249.31883135 282.517819 241.03850496 282.33498085 232.75815502 C282.03708512 219.26809648 281.73758866 205.7780741 281.43652344 192.28808594 C281.41857975 191.48403585 281.40063606 190.67998576 281.38214862 189.85157052 C281.18233054 180.8994909 280.98209716 171.94742065 280.78137207 162.99536133 C280.70873656 159.7556967 280.6361036 156.51603201 280.56347656 153.27636719 C280.54555459 152.47696003 280.52763262 151.67755288 280.50916755 150.85392126 C280.20811306 137.42179327 279.91003294 123.98960102 279.61419773 110.55735707 C279.44874975 103.05034003 279.28184033 95.54336128 279.11117554 88.03646088 C278.44439692 58.68761523 277.81569994 29.35856051 278 0 C291.53 0 305.06 0 319 0 C319.03768413 18.80446111 318.90679136 37.60215045 318.67648709 56.40483999 C318.62830166 60.36734291 318.5819415 64.3298673 318.5353241 68.29238892 C318.44405546 76.02599313 318.35113382 83.7595766 318.2575875 91.49315357 C318.18123651 97.8078172 318.10551158 104.12248807 318.03021049 110.43716431 C318.01399141 111.79721729 318.01399141 111.79721729 317.99744467 113.18474609 C317.975461 115.02841177 317.95347874 116.87207747 317.93149786 118.71574318 C317.72598007 135.94777772 317.51857046 153.17978909 317.31049227 170.41179287 C317.1336727 185.058691 316.95844637 199.70560745 316.78442383 214.35253906 C316.58089563 231.48280361 316.37633073 248.6130553 316.17022032 265.74328899 C316.1480141 267.58910305 316.12580908 269.43491712 316.10360527 271.2807312 C316.09268954 272.18811305 316.08177381 273.09549489 316.0705273 274.03037316 C315.99529971 280.28921398 315.9207633 286.54806279 315.84651375 292.80691528 C315.3510169 334.54049095 314.78120022 376.27064487 314 418 C313.27295219 418.02798141 312.54590438 418.05596281 311.79682481 418.08479214 C308.46766213 418.21331019 305.13854006 418.34285325 301.80941772 418.47241211 C300.09394194 418.53840733 300.09394194 418.53840733 298.34381008 418.60573578 C292.4501553 418.83582454 286.56252567 419.10023756 280.67431641 419.44140625 C264.71161802 419.96137683 264.71161802 419.96137683 259.9677124 416.52999878 C256.6229988 412.81357463 254.64643705 408.56740444 252.81231689 403.95477295 C251.74918142 401.39642598 250.31873903 399.21267618 248.7421875 396.94140625 C248.27055176 396.21977295 247.79891602 395.49813965 247.31298828 394.75463867 C246.83845215 394.03123291 246.36391602 393.30782715 245.875 392.5625 C240.91391502 384.96551185 236.00683704 377.33563277 231.125 369.6875 C225.95872613 361.59704839 220.7553916 353.53284527 215.5 345.5 C209.55817467 336.4179435 203.69180978 327.28975946 197.85083008 318.14257812 C192.11201025 309.16044388 186.30979712 300.22079014 180.49072266 291.29052734 C176.75426613 285.54938174 173.03968149 279.79404158 169.32080078 274.04150391 C168.0265446 272.04102883 166.73038684 270.04180003 165.43359375 268.04296875 C160.00666475 259.67415885 154.61934991 251.28087634 149.25 242.875 C143.43483431 233.77312109 137.56313754 224.7105202 131.64990234 215.67211914 C126.32965492 207.52980922 121.08542119 199.34013342 115.85083008 191.14257812 C110.11201025 182.16044388 104.30979712 173.22079014 98.49072266 164.29052734 C94.75426613 158.54938174 91.03968149 152.79404158 87.32080078 147.04150391 C86.0265446 145.04102883 84.73038684 143.04180003 83.43359375 141.04296875 C78.00666491 132.6741591 72.61931162 124.28090065 67.25 115.875 C61.39835811 106.71521511 55.4919483 97.5935342 49.53344727 88.50292969 C46.32268642 83.59511955 43.14703044 78.66839266 40.01953125 73.70703125 C39.3764502 72.68762451 38.73336914 71.66821777 38.07080078 70.61791992 C36.83952987 68.66119836 35.61245914 66.70182588 34.39013672 64.73950195 C33.84244629 63.86898193 33.29475586 62.99846191 32.73046875 62.1015625 C32.24989014 61.33150879 31.76931152 60.56145508 31.27416992 59.76806641 C30.10698999 57.86009245 30.10698999 57.86009245 28 57 C28.02729484 57.63310681 28.05458968 58.26621362 28.08271164 58.91850549 C28.81177569 76.10064715 29.25669336 93.27586906 29.53878057 110.47072828 C29.59739934 114.00550933 29.65930304 117.54023333 29.72073364 121.07496643 C29.83994129 127.96392896 29.95617573 134.85293838 30.071248 141.7419711 C30.16512797 147.35935735 30.26009211 152.97672435 30.35578728 158.59407997 C30.37639925 159.80416597 30.37639925 159.80416597 30.39742763 161.03869814 C30.42536929 162.67890676 30.45331277 164.31911536 30.48125803 165.95932392 C30.74197676 181.26979455 30.99921319 196.58032216 31.25526863 211.89087138 C31.47349875 224.93437816 31.69493952 237.97782723 31.91870117 251.02124023 C32.18021887 266.26552463 32.43949798 281.50984469 32.69550556 296.75422269 C32.72300979 298.39158688 32.75051742 300.02895101 32.77802849 301.66631508 C32.79155405 302.47133426 32.80507962 303.27635345 32.81901504 304.10576716 C32.91296126 309.68827692 33.00845349 315.27075892 33.10458565 320.85323143 C33.66154194 353.23807691 34.14032548 385.60863334 34 418 C20.47 418 6.94 418 -7 418 C-7.06691604 398.59077364 -6.82066495 379.19505147 -6.50740111 359.78932583 C-6.43443578 355.24335098 -6.36368586 350.69734151 -6.2926178 346.15133667 C-6.15357857 337.28083571 -6.01246252 328.41036901 -5.87050039 319.53991439 C-5.75504408 312.32479378 -5.64022647 305.10966328 -5.52584648 297.89452553 C-5.16528287 275.15420771 -4.80243228 252.4139275 -4.43787514 229.67367337 C-4.15109076 211.77903569 -3.86788859 193.88434336 -3.58632035 175.98962291 C-3.29628678 157.5593566 -3.00364639 139.12913328 -2.70828623 120.69895154 C-2.54286902 110.3739179 -2.37849099 100.04887025 -2.21690559 89.72377586 C-2.07942919 80.94065262 -1.9395029 72.15757251 -1.79648263 63.37453773 C-1.72372522 58.90227894 -1.65204852 54.43001027 -1.58345795 49.95768547 C-1.0545729 15.56311222 -1.0545729 15.56311222 0 0 Z " fill="#FFFFFF" transform="translate(1730,13)"/>
<path d="M0 0 C7.15023882 19.09839883 13.95156138 38.3146471 20.6875 57.5625 C21.11958771 58.79716003 21.55167542 60.03182007 21.99685669 61.30389404 C22.43109955 62.54471741 22.86534241 63.78554077 23.31274414 65.06396484 C28.56731991 80.0768119 33.8492109 95.07921125 39.1875 110.0625 C39.51033966 110.96881165 39.83317932 111.87512329 40.165802 112.80889893 C41.46720995 116.46228561 42.76864481 120.1156627 44.07032776 123.76895142 C47.76923615 134.15350259 51.44703578 144.5455167 55.125 154.9375 C61.50454383 172.96051765 67.89427716 190.97990398 74.28923798 208.9974556 C81.37026252 228.94796728 88.4463783 248.90019946 95.51123047 268.85644531 C102.13610441 287.56908781 108.77423465 306.27701736 115.41418457 324.98431396 C120.2228902 338.53237724 125.03048818 352.08082427 129.828125 365.6328125 C130.39286278 367.22791405 130.39286278 367.22791405 130.9690094 368.85523987 C132.75819485 373.90926418 134.54659165 378.96356562 136.33374023 384.01831055 C139.29070066 392.37818965 142.2561554 400.73448722 145.26953125 409.07421875 C145.51442291 409.75339355 145.75931458 410.43256836 146.0116272 411.13232422 C147.10577133 414.16672061 148.20397095 417.19947115 149.31152344 420.22900391 C149.67407227 421.23237793 150.03662109 422.23575195 150.41015625 423.26953125 C150.87627319 424.54727417 150.87627319 424.54727417 151.35180664 425.85083008 C152 428 152 428 152 431 C129.23 431 106.46 431 83 431 C78.50017071 419.75042677 78.50017071 419.75042677 77.17919922 415.91650391 C76.72519745 414.60477203 76.72519745 414.60477203 76.26202393 413.26654053 C75.7881424 411.8855014 75.7881424 411.8855014 75.3046875 410.4765625 C74.95976257 409.47788147 74.61483765 408.47920044 74.25946045 407.45025635 C73.12910365 404.17592637 72.00209932 400.90045254 70.875 397.625 C70.07757943 395.31387228 69.27988583 393.00283874 68.48193359 390.69189453 C66.82081451 385.88027023 65.16087283 381.0682424 63.50195312 376.25585938 C59.92838907 365.89037295 56.3474484 355.52744008 52.76318359 345.16564941 C52.00611165 342.97684757 51.24927463 340.78796445 50.49267578 338.59899902 C46.76123238 327.80469839 43.0191999 317.01471799 39.203125 306.25 C38.9142038 305.43467804 38.62528259 304.61935608 38.3276062 303.77932739 C37.00718194 300.05649432 35.68225407 296.3353501 34.35009766 292.61669922 C33.8974336 291.34603838 33.44479508 290.07536845 32.9921875 288.8046875 C32.60401855 287.72171387 32.21584961 286.63874023 31.81591797 285.52294922 C31 283 31 283 31 281 C-7.07496101 274.98533761 -45.19790976 280.16024529 -77 303 C-81.88502087 306.75513524 -86.47792634 310.81929857 -91 315 C-91.81984375 315.74894531 -92.6396875 316.49789063 -93.484375 317.26953125 C-102.7373794 326.11238474 -110.21184096 336.46826964 -117.125 347.1875 C-117.57915283 347.87956543 -118.03330566 348.57163086 -118.5012207 349.28466797 C-129.21132429 366.30652194 -135.36520588 385.1066329 -141.5 404.125 C-142.70993574 407.83992592 -143.92336609 411.5536784 -145.13952637 415.26657104 C-145.88842219 417.55659648 -146.63311718 419.84800087 -147.37316895 422.14089966 C-147.87004211 423.67047806 -147.87004211 423.67047806 -148.37695312 425.23095703 C-148.81255554 426.58062057 -148.81255554 426.58062057 -149.25695801 427.95755005 C-150 430 -150 430 -151 431 C-152.35094982 431.09268999 -153.70667091 431.11747326 -155.06079102 431.11352539 C-155.92160782 431.11344986 -156.78242462 431.11337433 -157.66932678 431.11329651 C-158.60473801 431.10813522 -159.54014923 431.10297394 -160.50390625 431.09765625 C-161.45692123 431.0962413 -162.40993622 431.09482635 -163.39183044 431.09336853 C-166.44875165 431.08775152 -169.50560077 431.07519616 -172.5625 431.0625 C-174.62955624 431.05748719 -176.69661362 431.05292391 -178.76367188 431.04882812 C-183.84247588 431.03777656 -188.9212257 431.02050055 -194 431 C-191.85861277 423.41100547 -189.23762602 416.06937794 -186.421875 408.70703125 C-185.97877487 407.54030884 -185.53567474 406.37358643 -185.07914734 405.17150879 C-183.88672574 402.03415708 -182.69118684 398.89803086 -181.49403 395.7624855 C-180.49067007 393.13283706 -179.48993796 390.50219193 -178.4892149 387.87153912 C-172.25673599 371.48839153 -165.99088383 355.1180745 -159.68334961 338.76367188 C-154.36015283 324.95914935 -149.08493506 311.13647873 -143.8125 297.3125 C-136.86317102 279.09259834 -129.88493486 260.884167 -122.875 242.6875 C-115.86160828 224.48133152 -108.90343771 206.25492038 -101.98327637 188.01312256 C-96.60492548 173.83665534 -91.19749599 159.67207036 -85.74295044 145.52474976 C-81.71607161 135.07963025 -77.70842424 124.62736244 -73.71875 114.16796875 C-73.25729584 112.95832962 -72.79584167 111.74869049 -72.32040405 110.50239563 C-70.04363891 104.53317589 -67.76828144 98.56342355 -65.49462891 92.59301758 C-63.41218875 87.12630263 -61.31937426 81.66362802 -59.22332764 76.20211792 C-57.98433371 72.95899274 -56.76043712 69.71042773 -55.53759766 66.46118164 C-54.74942997 64.39193495 -53.96087279 62.32283656 -53.171875 60.25390625 C-52.82246857 59.31393799 -52.47306213 58.37396973 -52.11306763 57.40551758 C-49.05961285 49.46022099 -44.86137566 44.17916109 -39 38 C-37.15766946 35.76794569 -35.39135236 33.47990582 -33.625 31.1875 C-32.70673452 30.0096322 -31.78745175 28.83255682 -30.8671875 27.65625 C-30.16867676 26.76292969 -30.16867676 26.76292969 -29.45605469 25.8515625 C-26.40485576 21.97156708 -23.3189403 18.11846527 -20.20629883 14.28759766 C-18.0263778 11.59490096 -15.94950796 8.92549707 -14.00390625 6.0546875 C-13.44574219 5.23226563 -12.88757812 4.40984375 -12.3125 3.5625 C-11.87550781 2.86253906 -11.43851563 2.16257813 -10.98828125 1.44140625 C-7.69059744 -0.94925254 -3.93778664 -0.26625604 0 0 Z M-37 89 C-46.47005613 116.62997043 -55.8313648 144.29454119 -65.08984375 171.99609375 C-65.40179286 172.92929231 -65.71374197 173.86249087 -66.03514409 174.82396817 C-68.98775756 183.65684262 -71.93945123 192.49002378 -74.88843441 201.32411098 C-78.61807564 212.49662604 -82.35293405 223.66736834 -86.09449667 234.83589691 C-88.75473516 242.77804987 -91.40929668 250.72208602 -94.05956179 258.66757256 C-95.63342389 263.38550935 -97.20977922 268.10257816 -98.7922802 272.81762505 C-100.26733363 277.2129203 -101.73539112 281.61048778 -103.19793129 286.00996208 C-103.73593859 287.62420598 -104.27653573 289.23758927 -104.81984711 290.85005569 C-105.55765912 293.04103213 -106.28628019 295.2348505 -107.01255798 297.42967224 C-107.42300826 298.65771293 -107.83345854 299.88575361 -108.2563467 301.15100765 C-109.31359022 303.92166364 -109.31359022 303.92166364 -108 306 C-107.40481567 305.34366577 -107.40481567 305.34366577 -106.79760742 304.67407227 C-98.99176318 296.10464955 -91.33240673 287.92741676 -82 281 C-81.48147461 280.60651367 -80.96294922 280.21302734 -80.42871094 279.80761719 C-51.06041998 257.57781347 -18.26353583 247.56759322 18 244 C15.92974795 236.9213545 13.67350219 229.92265133 11.296875 222.94140625 C10.94255905 221.89655563 10.5882431 220.85170502 10.22319031 219.77519226 C9.06758741 216.37023454 7.90902271 212.96629504 6.75 209.5625 C6.34983673 208.38562622 5.94967346 207.20875244 5.53738403 205.99621582 C-1.23531026 186.08173216 -8.12210816 166.20908588 -15.07749939 146.3578186 C-19.22316076 134.51830919 -23.32829658 122.66469994 -27.4375 110.8125 C-28.19799098 108.6194637 -28.95848883 106.42642977 -29.71899414 104.23339844 C-31.47971595 99.15573291 -33.24004447 94.07793117 -35 89 C-35.66 89 -36.32 89 -37 89 Z " fill="#FFFFFF" transform="translate(1480,0)"/>
<path d="M0 0 C1.20076172 0.06960937 1.20076172 0.06960937 2.42578125 0.140625 C3.56817261 0.20685059 3.56817261 0.20685059 4.73364258 0.27441406 C5.72593872 0.33193848 5.72593872 0.33193848 6.73828125 0.390625 C9.62246211 7.42643554 12.25473039 14.52372532 14.7578125 21.703125 C15.32052605 23.30793228 15.32052605 23.30793228 15.89460754 24.94515991 C16.69774107 27.23597472 17.49995766 29.52711118 18.30133057 31.81854248 C20.43545879 37.91984941 22.57713919 44.01850376 24.71875 50.1171875 C25.14837036 51.340961 25.57799072 52.5647345 26.02062988 53.82559204 C29.76553124 64.48522067 33.55363019 75.12899314 37.36328125 85.765625 C42.6405707 100.50602685 47.88949497 115.25617233 53.11328125 130.015625 C53.46929413 131.0214563 53.82530701 132.0272876 54.19210815 133.06359863 C55.99611719 138.16075804 57.79970232 143.25806731 59.60302734 148.35546875 C63.04204094 158.07619508 66.48373078 167.79597366 69.92578125 177.515625 C70.43936188 178.96597137 70.43936188 178.96597137 70.96331787 180.44561768 C77.68800237 199.43524308 84.4250869 218.42046326 91.16317749 237.40533447 C97.53209469 255.3501727 103.89493268 273.29714883 110.24951172 291.24707031 C114.52274884 303.31727108 118.79984875 315.38609487 123.08203125 327.453125 C123.31269539 328.10313036 123.54335953 328.75313572 123.78101349 329.42283821 C126.13505209 336.05631493 128.48942598 342.68967259 130.84413528 349.32291126 C135.5183175 362.49037862 140.18920841 375.65898616 144.84765625 388.83203125 C145.44507629 390.52094986 145.44507629 390.52094986 146.05456543 392.24398804 C147.91653439 397.50792098 149.77754971 402.77218687 151.63671875 408.03710938 C152.29032111 409.88543204 152.94396439 411.73374024 153.59765625 413.58203125 C153.8892865 414.4091713 154.18091675 415.23631134 154.48138428 416.08851624 C155.56873595 419.16039215 156.65401158 422.19334798 157.93457031 425.19116211 C158.73828125 427.390625 158.73828125 427.390625 158.73828125 431.390625 C135.96828125 431.390625 113.19828125 431.390625 89.73828125 431.390625 C85.99079803 421.39733641 82.30912973 411.43423055 78.8671875 401.33984375 C78.4235792 400.04475688 77.97973488 398.74975084 77.53567505 397.45481873 C76.60244037 394.73227399 75.67047013 392.00930159 74.73959351 389.28594971 C72.53970583 382.85059497 70.33258731 376.41771928 68.12538338 369.98487091 C67.63304648 368.54995395 67.14078138 367.11501234 66.64858818 365.68004608 C61.68844225 351.22019744 56.66925447 336.78136797 51.61889648 322.3527832 C51.04540746 320.71435641 50.47192106 319.0759287 49.8984375 317.4375 C49.62730637 316.66311081 49.35617523 315.88872162 49.076828 315.09086609 C47.3227156 310.07608708 45.58502691 305.05588938 43.859375 300.03125 C43.43116455 298.78585449 43.0029541 297.54045898 42.56176758 296.25732422 C41.79212682 294.01503411 41.02483359 291.77193609 40.26049805 289.52783203 C39.93605713 288.58278809 39.61161621 287.63774414 39.27734375 286.6640625 C39.00100098 285.85372559 38.7246582 285.04338867 38.43994141 284.20849609 C37.88305082 282.40037686 37.88305082 282.40037686 36.73828125 281.390625 C1.53730922 274.37092607 -36.14034108 280.83676332 -66.15185547 300.63769531 C-70.03569099 303.34744811 -73.66469584 306.30813686 -77.26171875 309.390625 C-78.26460938 310.24269531 -79.2675 311.09476562 -80.30078125 311.97265625 C-95.16907182 324.93064319 -106.32142311 340.55021556 -116.07421875 357.578125 C-116.42315186 358.18253418 -116.77208496 358.78694336 -117.1315918 359.40966797 C-122.58384042 369.1813654 -126.20451413 379.77946209 -129.6875 390.375 C-130.07995407 391.55660706 -130.47240814 392.73821411 -130.87675476 393.95562744 C-132.11352444 397.68255719 -133.34397651 401.41153614 -134.57421875 405.140625 C-135.41768495 407.68781021 -136.26249574 410.23454873 -137.10742188 412.78125 C-139.16443028 418.98255502 -141.21285849 425.18659954 -143.26171875 431.390625 C-157.78171875 431.390625 -172.30171875 431.390625 -187.26171875 431.390625 C-185.46121404 425.38894264 -183.70030293 419.6133645 -181.42578125 413.81640625 C-181.15473068 413.11588135 -180.88368011 412.41535645 -180.60441589 411.69360352 C-180.01381622 410.16820939 -179.4215527 408.64345863 -178.82778931 407.11929321 C-177.1480367 402.80658274 -175.48147225 398.48876603 -173.8125 394.171875 C-173.45091293 393.23765213 -173.08932587 392.30342926 -172.71678162 391.34089661 C-168.57681555 380.63731897 -164.49085699 369.91320407 -160.40325928 359.18954468 C-153.05420965 339.9110722 -145.67610366 320.64406112 -138.26171875 301.390625 C-131.42279627 283.62983623 -124.60994465 265.85930852 -117.82421875 248.078125 C-117.38965363 246.93942963 -116.9550885 245.80073425 -116.50735474 244.62753296 C-113.42454767 236.54891771 -110.34298939 228.46982636 -107.26171875 220.390625 C-103.74174559 211.16113 -100.22115641 201.93187056 -96.69921875 192.703125 C-96.26523773 191.56584961 -95.83125671 190.42857422 -95.38412476 189.25683594 C-88.58783618 171.44972904 -81.75538808 153.65674788 -74.90103149 135.87191772 C-70.23490168 123.76355341 -65.5912975 111.64719884 -60.99609375 99.51171875 C-60.56487213 98.37351181 -60.13365051 97.23530487 -59.68936157 96.06260681 C-57.63084902 90.62759331 -55.57589867 85.19127604 -53.52685547 79.75268555 C-51.46446325 74.28848803 -49.37616044 68.8348858 -47.26171875 63.390625 C-46.98319061 62.66846802 -46.70466248 61.94631104 -46.41769409 61.20227051 C-43.39293905 53.43746519 -40.15013875 47.09191105 -34.57421875 40.890625 C-33.33326659 39.44779075 -32.0937005 38.00376331 -30.85546875 36.55859375 C-30.24703125 35.85782715 -29.63859375 35.15706055 -29.01171875 34.43505859 C-26.43900041 31.42948614 -24.00007973 28.32758793 -21.57421875 25.203125 C-20.92030151 24.36515381 -20.92030151 24.36515381 -20.25317383 23.51025391 C-19.37595763 22.38610191 -18.49941124 21.26142692 -17.62353516 20.13623047 C-14.72121948 16.41598 -11.79629982 12.71339371 -8.8762207 9.00708008 C-7.07425493 6.71585002 -5.31077381 4.46754939 -3.7421875 2.0078125 C-2.26171875 0.390625 -2.26171875 0.390625 0 0 Z M-30.26171875 89.390625 C-40.45753192 119.05456708 -50.44632796 148.7855593 -60.35693359 178.54589844 C-62.35795877 184.55466477 -64.3617023 190.56252055 -66.36616516 196.57014084 C-74.56154495 221.13644583 -82.71841789 245.71391488 -90.69836426 270.35116577 C-90.96016228 271.15877413 -91.2219603 271.96638248 -91.49169159 272.79846382 C-91.99868821 274.36393144 -92.50456796 275.9297613 -93.00922394 277.49598503 C-94.30450343 281.50250175 -95.63514822 285.49325425 -97.01538086 289.47137451 C-97.29961662 290.29793234 -97.58385239 291.12449017 -97.87670135 291.9760952 C-98.42112416 293.55417797 -98.9728701 295.12975947 -99.53302765 296.70232582 C-101.08418687 300.99504114 -101.08418687 300.99504114 -100.26171875 305.390625 C-99.4253186 304.52280396 -99.4253186 304.52280396 -98.57202148 303.63745117 C-77.33463818 281.71069826 -77.33463818 281.71069826 -64.26171875 273.390625 C-63.61879883 272.97312988 -62.97587891 272.55563477 -62.31347656 272.12548828 C-35.52558537 254.91027145 -6.59095377 247.47278354 24.73828125 244.390625 C22.55021408 235.83610129 19.82664267 227.51296811 16.94140625 219.171875 C16.47066899 217.802786 16.00022228 216.43359706 15.53004456 215.0643158 C14.27890614 211.42371642 13.02335008 207.78465597 11.76672745 204.1459465 C10.72105304 201.11640896 9.67789215 198.08600843 8.63470554 195.05561352 C-3.50947366 159.77954547 -15.80898682 124.55894258 -28.26171875 89.390625 C-28.92171875 89.390625 -29.58171875 89.390625 -30.26171875 89.390625 Z M-102.26171875 305.390625 C-101.26171875 307.390625 -101.26171875 307.390625 -101.26171875 307.390625 Z " fill="#FFFFFF" transform="translate(519.26171875,-0.390625)"/>
<path d="M0 0 C0.81176697 0.01829361 1.62353394 0.03658722 2.4598999 0.05543518 C3.07931458 0.07895554 3.69872925 0.10247589 4.33691406 0.12670898 C4.58730942 0.83444458 4.83770477 1.54218018 5.09568787 2.2713623 C22.30132008 50.90228973 39.50954938 99.53226254 56.76345825 148.14608765 C63.13182112 166.08937127 69.49411629 184.03478866 75.84814453 201.9831543 C82.00269274 219.36731306 88.16862373 236.74742301 94.33691406 254.12670898 C101.1792201 273.40504819 108.01656776 292.68512655 114.84310913 311.96905518 C120.37945043 327.60782693 125.92590563 343.24299548 131.47558594 358.87703705 C133.14686434 363.58539409 134.81752909 368.29396852 136.48779297 373.00268555 C136.71774712 373.65095055 136.94770126 374.29921555 137.18462372 374.96712494 C138.09422549 377.53141722 139.00381625 380.09571341 139.91333771 382.66003418 C142.42828278 389.75059778 144.94554013 396.84032503 147.46824646 403.9281311 C148.62769931 407.18707132 149.78484732 410.44682582 150.94125366 413.70684814 C151.44909976 415.13673264 151.95804566 416.56622706 152.46817017 417.99530029 C153.14337459 419.88706071 153.81451347 421.78027082 154.48535156 423.67358398 C154.84806152 424.69291016 155.21077148 425.71223633 155.58447266 426.76245117 C156.33691406 429.12670898 156.33691406 429.12670898 156.33691406 431.12670898 C133.23691406 431.12670898 110.13691406 431.12670898 86.33691406 431.12670898 C84.00628906 424.25858398 81.67566406 417.39045898 79.27441406 410.31420898 C73.94044468 394.62561501 68.56123708 378.95437812 63.08691406 363.31420898 C57.28704142 346.73574498 51.51555349 330.14761978 45.77722168 313.54776001 C44.86161356 310.89944308 43.94447888 308.25166258 43.02600098 305.6043396 C41.74203963 301.90336207 40.46305297 298.20067667 39.18457031 294.49780273 C38.79473465 293.37601624 38.40489899 292.25422974 38.00325012 291.09844971 C37.47437447 289.56254181 37.47437447 289.56254181 36.93481445 287.99560547 C36.46973228 286.65126686 36.46973228 286.65126686 35.99525452 285.2797699 C35.33691406 283.12670898 35.33691406 283.12670898 35.33691406 281.12670898 C14.93083006 277.90318091 -6.48253909 277.2818518 -26.66308594 282.12670898 C-27.37078125 282.29299805 -28.07847656 282.45928711 -28.80761719 282.63061523 C-39.89332839 285.32713958 -49.67991011 289.67128902 -59.66308594 295.12670898 C-60.72269531 295.68229492 -61.78230469 296.23788086 -62.87402344 296.81030273 C-84.65563855 308.73016297 -101.33428867 328.80684001 -114.35058594 349.50170898 C-115.1346582 350.73920898 -115.1346582 350.73920898 -115.93457031 352.00170898 C-125.76927686 367.98465347 -131.25828392 385.1932832 -137.03808594 402.93920898 C-138.26264248 406.67033228 -139.48976445 410.4006009 -140.71792603 414.13053894 C-141.47628549 416.43671603 -142.23205183 418.7437478 -142.98495483 421.05171204 C-143.322659 422.0842662 -143.66036316 423.11682037 -144.00830078 424.18066406 C-144.3047348 425.09028397 -144.60116882 425.99990387 -144.90658569 426.93708801 C-145.66308594 429.12670898 -145.66308594 429.12670898 -146.66308594 431.12670898 C-160.85308594 431.12670898 -175.04308594 431.12670898 -189.66308594 431.12670898 C-188.98403363 427.05239512 -188.47843537 424.22371357 -187.046875 420.54492188 C-186.71347107 419.67960342 -186.38006714 418.81428497 -186.03656006 417.92274475 C-185.67096985 416.99102951 -185.30537964 416.05931427 -184.92871094 415.09936523 C-184.35108002 413.60638161 -184.35108002 413.60638161 -183.76177979 412.08323669 C-182.92449464 409.92097742 -182.08460813 407.75972408 -181.24243164 405.59936523 C-179.42339599 400.93301263 -177.61679544 396.26187622 -175.80932617 391.59103394 C-174.86026863 389.13889851 -173.91055093 386.6870185 -172.96020508 384.23538208 C-168.42085703 372.52111196 -163.93826117 360.78552309 -159.46569824 349.04562378 C-152.23198447 330.05958247 -144.96447634 311.08682044 -137.66308594 292.12670898 C-130.82417103 274.36591729 -124.01131185 256.59539252 -117.22558594 238.81420898 C-116.79102081 237.67551361 -116.35645569 236.53681824 -115.90872192 235.36361694 C-112.82591486 227.28500169 -109.74435657 219.20591035 -106.66308594 211.12670898 C-103.14311278 201.89721398 -99.6225236 192.66795454 -96.10058594 183.43920898 C-95.66660492 182.30193359 -95.2326239 181.1646582 -94.78549194 179.99291992 C-90.06036257 167.61250333 -85.32573262 155.23583597 -80.56542969 142.86889648 C-80.14812088 141.78465393 -79.73081207 140.70041138 -79.30085754 139.58331299 C-77.22719849 134.19708774 -75.15128413 128.81174331 -73.07250977 123.42749023 C-68.7917263 112.3293793 -64.56079497 101.21476241 -60.39746094 90.07202148 C-59.10851804 86.63449424 -57.81895417 83.19720039 -56.52935791 79.75991821 C-55.32056799 76.5261065 -54.12423868 73.28786947 -52.92822266 70.04931641 C-52.18680115 68.0709815 -51.44480715 66.09286103 -50.70214844 64.11499023 C-50.38107117 63.23299957 -50.0599939 62.35100891 -49.72918701 61.44229126 C-46.28258249 52.34476139 -40.79079773 45.03767472 -34.60058594 37.62670898 C-29.93307435 31.96658362 -25.40578892 26.22420845 -20.97558594 20.37670898 C-19.8941388 18.96610473 -18.81211882 17.55593944 -17.72949219 16.14624023 C-15.76377191 13.5847357 -13.83934673 10.99970056 -11.94042969 8.38842773 C-11.0992016 7.27942846 -10.25682874 6.17129622 -9.41308594 5.06420898 C-8.70667969 4.10385742 -8.00027344 3.14350586 -7.27246094 2.15405273 C-4.32127772 -0.13885758 -3.58425473 -0.10471899 0 0 Z M-32.66308594 89.12670898 C-36.82951768 98.84738405 -40.03059809 108.91779427 -43.37524414 118.94091797 C-44.04717066 120.94742853 -44.71933168 122.95386058 -45.39170837 124.96022034 C-47.20842575 130.38426639 -49.02121003 135.80961855 -50.83277154 141.23538852 C-51.96461334 144.62503731 -53.0971553 148.01445139 -54.2299099 151.40379524 C-57.77423957 162.00948926 -61.31619007 172.61597327 -64.85465461 183.2236256 C-68.93977324 195.469994 -73.03275443 207.71369719 -77.13250476 219.95517486 C-80.30320922 229.42414737 -83.46704597 238.89539657 -86.62561482 248.368424 C-88.51199931 254.02547734 -90.40131261 259.68151256 -92.29775429 265.33520317 C-94.0777358 270.64234074 -95.84921538 275.95223859 -97.61406898 281.26442528 C-98.26442258 283.21703438 -98.91787932 285.16861295 -99.57459641 287.11909103 C-100.46760739 289.77291762 -101.34955854 292.43016503 -102.22871399 295.08860779 C-102.62586726 296.25589838 -102.62586726 296.25589838 -103.03104383 297.44677061 C-104.49938817 301.74611126 -104.49938817 301.74611126 -103.66308594 306.12670898 C-102.57253906 304.91047852 -102.57253906 304.91047852 -101.45996094 303.66967773 C-67.99769405 266.66255997 -26.779351 249.3175339 22.33691406 244.12670898 C15.07642057 222.04530346 7.59543529 200.04084913 0.02441406 178.06420898 C-0.20123104 177.4091827 -0.42687614 176.75415642 -0.65935898 176.07928085 C-7.37731778 156.58090274 -14.13221185 137.09545853 -20.95727539 117.63427734 C-24.27761655 108.15880377 -27.52151182 98.66312386 -30.66308594 89.12670898 C-31.32308594 89.12670898 -31.98308594 89.12670898 -32.66308594 89.12670898 Z " fill="#FFFFFF" transform="translate(2324.6630859375,-0.126708984375)"/>
<path d="M0 0 C1.47081528 0.00323273 1.47081528 0.00323273 2.97134399 0.00653076 C17.36999253 0.05739847 31.47905499 0.37709214 45.625 3.3125 C47.11555908 3.61849121 47.11555908 3.61849121 48.63623047 3.93066406 C65.09367279 7.41112054 82.68662399 11.3244508 97.625 19.3125 C95.1662997 28.23095901 91.88026496 36.78153716 88.52709961 45.39282227 C87.55373369 47.89755811 86.59211101 50.40660953 85.63085938 52.91601562 C85.01372625 54.50808612 84.39591288 56.09989314 83.77734375 57.69140625 C83.34759499 58.81779259 83.34759499 58.81779259 82.90916443 59.9669342 C80.85398006 65.19800997 80.85398006 65.19800997 78.625 66.3125 C76.54394531 65.33129883 76.54394531 65.33129883 73.953125 63.76953125 C72.99043701 63.1964624 72.02774902 62.62339355 71.03588867 62.03295898 C69.99279541 61.40333252 68.94970215 60.77370605 67.875 60.125 C65.66929134 58.81807776 63.46223221 57.51343236 61.25390625 56.2109375 C60.13773926 55.5519043 59.02157227 54.89287109 57.87158203 54.21386719 C13.45766923 26.32273184 13.45766923 26.32273184 -36.69140625 19.9609375 C-53.21172288 24.61286782 -65.18110379 34.0276303 -74.375 48.3125 C-84.3982522 67.03271722 -85.50720232 87.05271746 -80.375 107.3125 C-72.41440952 132.7321128 -49.79133239 147.21839245 -27.53710938 159.15136719 C-26.07394156 159.9371425 -24.61438176 160.72966727 -23.15820312 161.52832031 C-11.71721553 167.80288063 -0.02372449 173.35258967 11.875 178.6875 C50.71945616 196.12619902 96.38206201 217.65686523 112.625 260.3125 C120.21565068 283.65979435 120.95894805 307.56817879 114.625 331.3125 C114.29757812 332.57707031 113.97015625 333.84164063 113.6328125 335.14453125 C108.89444443 351.1062602 100.38625772 366.63511905 89.625 379.3125 C88.90828125 380.16714844 88.1915625 381.02179688 87.453125 381.90234375 C62.69614995 410.39042319 28.63951079 425.92578172 -8.625 429 C-52.21010509 431.31014095 -106.29214854 422.58873195 -145.375 402.3125 C-142.95286685 392.69309222 -139.86894662 383.28880124 -136.75927734 373.875 C-136.16444111 372.06717083 -135.57501221 370.25755441 -134.99072266 368.44628906 C-134.14078406 365.81181051 -133.2754367 363.18286882 -132.40625 360.5546875 C-132.01705383 359.33457474 -132.01705383 359.33457474 -131.61999512 358.08981323 C-130.962039 356.13132189 -130.17887277 354.21575593 -129.375 352.3125 C-126.375 351.3125 -126.375 351.3125 -124.30395508 352.18603516 C-123.50884521 352.65315918 -122.71373535 353.1202832 -121.89453125 353.6015625 C-120.9907373 354.12419678 -120.08694336 354.64683105 -119.15576172 355.18530273 C-118.17623535 355.76352783 -117.19670898 356.34175293 -116.1875 356.9375 C-114.08298258 358.1513904 -111.97748416 359.36358136 -109.87109375 360.57421875 C-108.78940918 361.1986084 -107.70772461 361.82299805 -106.59326172 362.46630859 C-48.75282819 398.02231029 -48.75282819 398.02231029 15.6875 407.4375 C27.23990206 403.86961528 37.67433122 397.34346703 46.625 389.3125 C47.23472656 388.79558594 47.84445313 388.27867187 48.47265625 387.74609375 C59.61005932 377.62348823 68.62081097 360.59305646 69.84643555 345.60449219 C70.70245487 323.59256662 68.57138807 304.61284004 53.75 287.25 C34.86185389 267.21771212 6.47129655 255.8757828 -18.140625 244.6328125 C-109.95591232 202.66227297 -109.95591232 202.66227297 -128.09375 157.97265625 C-137.81927963 130.18966459 -138.13386625 97.78052454 -125.2890625 70.99609375 C-110.27405311 41.29717518 -80.6864118 17.27445688 -49.33203125 6.61816406 C-47.166037 5.90701568 -44.99330927 5.22676808 -42.8125 4.5625 C-42.16466553 4.36350098 -41.51683105 4.16450195 -40.84936523 3.95947266 C-27.37960038 0.08627111 -13.89460137 -0.05460601 0 0 Z " fill="#FFFFFF" transform="translate(145.375,7.6875)"/>
<path d="M0 0 C77.34526854 0 77.34526854 0 96 14 C97.22396484 14.91072266 97.22396484 14.91072266 98.47265625 15.83984375 C108.90462431 24.75619358 115.70068434 38.37523167 117 52 C118.09298915 69.85362515 115.77903091 86.45190088 103.5625 100.375 C102.06008732 101.93462376 100.54081739 103.47830623 99 105 C98.45859375 105.56332031 97.9171875 106.12664062 97.359375 106.70703125 C73.07461491 129.94926376 26.51452524 122 0 122 C0 81.74 0 41.48 0 0 Z M23 21 C23 47.4 23 73.8 23 101 C56.76187649 102.83045345 56.76187649 102.83045345 85 88 C92.73260505 77.38662052 95.08120737 67.0345555 94 54 C92.25259456 43.69030793 87.09379896 34.64606264 78.5703125 28.53515625 C60.48278987 17.73212222 45.76650654 21 23 21 Z " fill="#FFFFFF" transform="translate(599,611)"/>
<path d="M0 0 C74.64986796 0 74.64986796 0 88.8125 13.1875 C97.98527233 22.94369955 100.52081237 34.0377736 100.3125 47.109375 C99.24702045 60.37459538 93.76027136 68.9960804 84.02734375 77.5546875 C81.78343785 79.1543892 79.5645988 80.01700492 77 81 C78.456408 83.08359886 79.91317109 85.16694809 81.37036133 87.25 C82.63131011 89.05289962 83.89155559 90.85629132 85.15112305 92.66015625 C88.26545853 97.11536984 91.39225445 101.55981106 94.56640625 105.97265625 C95.11458008 106.73779541 95.66275391 107.50293457 96.22753906 108.29125977 C97.26482359 109.73677935 98.30696335 111.17883023 99.35449219 112.61694336 C100.05493652 113.59546265 100.05493652 113.59546265 100.76953125 114.59375 C101.17792236 115.15771484 101.58631348 115.72167969 102.00708008 116.30273438 C103.10371809 118.17729239 103.57221883 119.87992001 104 122 C83.07592846 124.02066748 83.07592846 124.02066748 77.04394531 121.03027344 C73.89772957 118.34692045 72.04814101 114.78354446 70.18994141 111.16259766 C68.30619579 107.73908131 66.00672946 104.62255036 63.75097656 101.43676758 C62.00562755 98.97123887 60.28619519 96.49165371 58.58984375 93.9921875 C57.87622681 92.94587158 57.87622681 92.94587158 57.14819336 91.87841797 C56 90 56 90 55 87 C44.44 87 33.88 87 23 87 C23 98.55 23 110.1 23 122 C15.41 122 7.82 122 0 122 C0 81.74 0 41.48 0 0 Z M23 21 C23 35.85 23 50.7 23 66 C31.0746875 66.12375 31.0746875 66.12375 39.3125 66.25 C40.98739502 66.28641602 42.66229004 66.32283203 44.38793945 66.36035156 C54.1535975 66.48351637 62.87755645 65.92357379 70.9375 59.75 C76.19781561 52.73624586 78.25738241 46.87945308 77 38 C75.18526088 31.76116315 71.40204786 27.47503836 66 24 C57.39641771 20.0041045 48.12790039 20.65763019 38.875 20.8125 C31.016875 20.9053125 31.016875 20.9053125 23 21 Z " fill="#FFFFFF" transform="translate(1661,611)"/>
<path d="M0 0 C13.28727921 11.37042581 20.50063868 26.63964009 21.94140625 44 C22.67543903 60.89730991 17.80160002 76.74314048 7 89.9375 C-4.44456505 101.93334467 -20.43119156 109.71494883 -37.06640625 110.5234375 C-56.6572664 110.88637892 -73.60884766 106.74874177 -88.8359375 93.671875 C-100.80134667 81.96418234 -107.23113618 67.17322159 -107.72875977 50.51611328 C-107.89131061 32.69530877 -102.76881567 17.31428326 -90.375 4.1875 C-65.82028161 -19.38331852 -26.76010613 -20.24424568 0 0 Z M-75.125 20.875 C-83.57751673 31.09664813 -85.1353985 42.33113274 -84.375 55.1875 C-82.71316522 65.22892539 -77.4808793 74.26165492 -69.578125 80.65625 C-59.21499956 87.85898966 -48.90150061 90.31203812 -36.375 89.1875 C-24.44652753 86.8818809 -15.00867394 81.47541098 -7.84375 71.58984375 C-1.71705829 61.56879215 0.28940217 50.35733692 -2.05859375 38.83203125 C-5.33035487 27.25189748 -11.05466968 18.36747219 -21.3828125 11.9375 C-39.21098389 2.42914192 -61.28883297 6.35593202 -75.125 20.875 Z " fill="#FFFFFF" transform="translate(1344.375,623.8125)"/>
<path d="M0 0 C29.04 0 58.08 0 88 0 C88 6.93 88 13.86 88 21 C66.55 21 45.1 21 23 21 C23 30.57 23 40.14 23 50 C42.14 50 61.28 50 81 50 C81 56.6 81 63.2 81 70 C61.86 70 42.72 70 23 70 C23 80.23 23 90.46 23 101 C45.44 101 67.88 101 91 101 C91 107.93 91 114.86 91 122 C60.97 122 30.94 122 0 122 C0 81.74 0 41.48 0 0 Z " fill="#FFFFFF" transform="translate(1007,611)"/>
<path d="M0 0 C29.04 0 58.08 0 88 0 C88 6.93 88 13.86 88 21 C66.55 21 45.1 21 23 21 C23 30.57 23 40.14 23 50 C42.14 50 61.28 50 81 50 C81 56.6 81 63.2 81 70 C61.86 70 42.72 70 23 70 C23 80.23 23 90.46 23 101 C45.11 101 67.22 101 90 101 C90 107.93 90 114.86 90 122 C60.3 122 30.6 122 0 122 C0 81.74 0 41.48 0 0 Z " fill="#FFFFFF" transform="translate(751,611)"/>
<path d="M0 0 C29.04 0 58.08 0 88 0 C88 6.93 88 13.86 88 21 C66.55 21 45.1 21 23 21 C23 30.57 23 40.14 23 50 C41.81 50 60.62 50 80 50 C80 56.6 80 63.2 80 70 C61.19 70 42.38 70 23 70 C23 80.23 23 90.46 23 101 C45.11 101 67.22 101 90 101 C90 107.93 90 114.86 90 122 C60.3 122 30.6 122 0 122 C0 81.74 0 41.48 0 0 Z " fill="#FFFFFF" transform="translate(1535,611)"/>
<path d="M0 0 C74.32930929 0 74.32930929 0 89 13.1875 C97.78344237 23.23842646 100.4257698 35.53960276 99.83984375 48.55859375 C98.52413033 59.40364902 94.1412975 68.62194914 86 76 C75.05996346 84.2050274 62.36939285 87.1964905 48.87890625 87.09765625 C48.2175769 87.09664917 47.55624756 87.09564209 46.87487793 87.09460449 C44.43740063 87.0894276 41.99994831 87.07546698 39.5625 87.0625 C31.3640625 87.0315625 31.3640625 87.0315625 23 87 C23 98.55 23 110.1 23 122 C15.41 122 7.82 122 0 122 C0 81.74 0 41.48 0 0 Z M23 21 C23 35.85 23 50.7 23 66 C28.07375 66.061875 33.1475 66.12375 38.375 66.1875 C39.95458496 66.21481201 41.53416992 66.24212402 43.16162109 66.27026367 C53.24897692 66.32957105 63.00264794 65.88144247 71 59 C75.61472401 53.5952553 77.37368129 48.08895382 77 41 C75.88448922 34.92340182 73.55724701 30.26003525 69 26 C62.16294668 22.18397024 56.17677529 20.84478606 48.390625 20.90234375 C47.74593262 20.90335083 47.10124023 20.90435791 46.43701172 20.90539551 C44.04132291 20.91060598 41.64565957 20.92456719 39.25 20.9375 C33.8875 20.958125 28.525 20.97875 23 21 Z " fill="#FFFFFF" transform="translate(1401,611)"/>
<path d="M0 0 C-0.58838199 4.84111765 -2.07653116 8.96071195 -4.0625 13.375 C-4.34416016 14.01566406 -4.62582031 14.65632812 -4.91601562 15.31640625 C-5.60459421 16.88029659 -6.30144711 18.44053941 -7 20 C-10.42448877 18.6730106 -13.70264333 17.17599312 -17 15.5625 C-30.0135607 9.64246835 -43.43189973 7.93431816 -57.01171875 12.70703125 C-60.92462922 14.50352474 -62.58364674 16.54985954 -64.0625 20.4375 C-64.82112788 23.3118044 -65.0263854 24.85158211 -64.5 27.8125 C-58.65334697 36.338869 -46.95667889 38.11946381 -37.49755859 40.48388672 C-21.57637622 44.46946667 -7.17028526 48.22870085 2.14453125 62.7890625 C5.62130654 69.99662406 5.02732039 80.34036822 3.34375 87.9765625 C0.18399125 96.77485625 -5.90546425 103.20987225 -14.0390625 107.6796875 C-31.87595941 115.63334338 -52.94655791 115.17691545 -71.203125 108.8984375 C-78.43970074 106.08017308 -85.45919022 102.54080978 -91 97 C-90.71875487 92.02412469 -88.84948034 88.42271043 -86.4375 84.125 C-85.79683594 82.97257813 -85.15617187 81.82015625 -84.49609375 80.6328125 C-84.00238281 79.76398438 -83.50867187 78.89515625 -83 78 C-79.98985211 79.44322159 -77.19985748 81.0991124 -74.375 82.875 C-60.99105738 90.8975387 -47.501735 93.40216406 -32 91 C-27.7085664 89.75789782 -24.31525465 88.19194953 -21 85.1875 C-19.54117186 81.99631345 -19.06068887 79.5199546 -19 76 C-21.55006761 70.34550225 -25.45964011 68.22778359 -31 66 C-35.71051606 64.533645 -40.47351777 63.29443234 -45.25 62.0625 C-77.09883186 53.84504028 -77.09883186 53.84504028 -86 39 C-89.55745317 30.91487915 -89.14617459 20.51241211 -86.5 12.1875 C-82.20321372 2.0974605 -75.25449182 -2.93036735 -65.66015625 -7.58984375 C-44.08818987 -15.90092151 -19.29300294 -11.76080316 0 0 Z " fill="#FFFFFF" transform="translate(1878,621)"/>
<path d="M0 0 C8.25 0 16.5 0 25 0 C29.39364873 8.60970986 33.41541187 17.31715262 37.25 26.1875 C38.14912011 28.25746772 39.0494167 30.32692125 39.94978333 32.39634705 C40.59125118 33.87084866 41.23234709 35.34551213 41.87309265 36.82032776 C44.5252134 42.9213491 47.19909941 49.01265746 49.87890625 55.1015625 C50.28916046 56.03404312 50.69941467 56.96652374 51.12210083 57.92726135 C52.75751519 61.64409567 54.39312679 65.36084136 56.03063965 69.07675171 C57.17396698 71.6717368 58.31565435 74.26743782 59.45703125 76.86328125 C59.80117569 77.64309357 60.14532013 78.42290588 60.49989319 79.22634888 C61.77477689 82.12856583 62.99696635 84.99089904 64 88 C68.84929983 78.67899543 73.09910212 69.13837687 77.290802 59.5090332 C78.45840309 56.82698436 79.62990963 54.14667213 80.80249023 51.46679688 C82.41083409 47.79054733 84.01796815 44.11377336 85.62402344 40.43652344 C88.93078652 32.86765016 92.24816625 25.30347136 95.57571411 17.74371338 C96.54972691 15.52904292 97.52087334 13.31312998 98.49194336 11.09716797 C99.079099 9.76262256 99.66641051 8.42814572 100.25390625 7.09375 C100.76252197 5.93552734 101.2711377 4.77730469 101.79516602 3.58398438 C103 1 103 1 104 0 C105.70772358 -0.08713831 107.41898649 -0.10700007 109.12890625 -0.09765625 C110.68061523 -0.09282227 110.68061523 -0.09282227 112.26367188 -0.08789062 C113.35228516 -0.07951172 114.44089844 -0.07113281 115.5625 -0.0625 C117.2012207 -0.05573242 117.2012207 -0.05573242 118.87304688 -0.04882812 C121.58208495 -0.03699826 124.29101599 -0.02051543 127 0 C126.32813025 4.67397579 124.5094455 8.74204456 122.59765625 13.015625 C122.24862244 13.80680222 121.89958862 14.59797943 121.53997803 15.41313171 C120.38542901 18.0274872 119.22392502 20.63869282 118.0625 23.25 C117.24841492 25.09034308 116.4348655 26.9309232 115.62182617 28.77172852 C113.92897329 32.60345132 112.2338039 36.434137 110.53710938 40.26416016 C106.98167486 48.29539681 103.45750911 56.34031607 99.93182373 64.38464355 C97.714976 69.44063752 95.49369826 74.49468605 93.27297974 79.54898071 C91.43767673 83.72632534 89.6031811 87.90402044 87.77050781 92.08251953 C85.99452435 96.13161499 84.21629633 100.17971722 82.43637085 104.2270813 C81.77508629 105.73182643 81.11461305 107.23692841 80.45498657 108.74240112 C79.55418099 110.79797434 78.65051504 112.85226564 77.74609375 114.90625 C77.23747803 116.06447266 76.7288623 117.22269531 76.20483398 118.41601562 C75 121 75 121 74 122 C72.43827255 122.08685603 70.87270656 122.10702219 69.30859375 122.09765625 C68.36435547 122.09443359 67.42011719 122.09121094 66.44726562 122.08789062 C65.45404297 122.07951172 64.46082031 122.07113281 63.4375 122.0625 C62.44041016 122.05798828 61.44332031 122.05347656 60.41601562 122.04882812 C57.94395151 122.03700007 55.47200482 122.02051849 53 122 C52.55422607 120.98317139 52.10845215 119.96634277 51.64916992 118.91870117 C49.49603868 114.00796786 47.34189885 109.09767731 45.1875 104.1875 C44.58618256 102.81688416 44.58618256 102.81688416 43.97271729 101.4185791 C39.37506671 90.94065692 34.76944247 80.46637479 30.13671875 70.00390625 C29.74168152 69.11175919 29.34664429 68.21961212 28.93963623 67.3004303 C28.54592834 66.41133469 28.15222046 65.52223907 27.74658203 64.60620117 C20.71195887 48.72017438 13.71689166 32.81811786 6.8125 16.875 C6.28653229 15.66269714 6.28653229 15.66269714 5.74993896 14.42590332 C4.77523686 12.17805123 3.80312081 9.92910218 2.83203125 7.6796875 C2.39762978 6.67840317 2.39762978 6.67840317 1.95445251 5.65689087 C0 1.11532981 0 1.11532981 0 0 Z " fill="#FFFFFF" transform="translate(857,611)"/>
<path d="M0 0 C7.59 0 15.18 0 23 0 C23 33.33 23 66.66 23 101 C43.79 101 64.58 101 86 101 C86 107.93 86 114.86 86 122 C57.62 122 29.24 122 0 122 C0 81.74 0 41.48 0 0 Z " fill="#FFFFFF" transform="translate(1134,611)"/>
</svg>
