<?xml version="1.0" encoding="UTF-8"?>
<svg version="1.1" xmlns="http://www.w3.org/2000/svg" width="724" height="239">
<path d="M0 0 C7.26 0 14.52 0 22 0 C22 18.48 22 36.96 22 56 C46.09 56 70.18 56 95 56 C95 37.52 95 19.04 95 0 C102.26 0 109.52 0 117 0 C117 45.87 117 91.74 117 139 C109.74 139 102.48 139 95 139 C95 114.58 95 90.16 95 65 C70.91 65 46.82 65 22 65 C22 89.42 22 113.84 22 139 C14.74 139 7.48 139 0 139 C0 93.13 0 47.26 0 0 Z " fill="#000000" transform="translate(450,7)"/>
<path d="M0 0 C55.84955752 0 55.84955752 0 67 10 C74.21041062 17.5986635 76.51253304 24.4957425 76.31640625 34.9296875 C75.54971172 42.36946406 72.77292871 48.18922607 67 53 C66.47792969 53.45246094 65.95585937 53.90492187 65.41796875 54.37109375 C63.36164 56.13723499 61.43379025 57.78310488 59 59 C60.05058594 59.49628906 61.10117187 59.99257812 62.18359375 60.50390625 C74.73260953 66.52797209 84.56677071 72.02661794 91 85 C94.32728952 94.55900234 94.80849932 106.42776582 90.4140625 115.73828125 C87.79774994 119.92293588 84.67768088 123.70441583 81 127 C80.34 127 79.68 127 79 127 C79 127.66 79 128.32 79 129 C53.31380395 143.07275635 31.04396523 139 0 139 C0 93.13 0 47.26 0 0 Z M21 9 C21 48.93 21 88.86 21 130 C44.06967504 130.8216991 44.06967504 130.8216991 63.19140625 120.9375 C70.57381936 113.02891058 70.49229434 103.34073912 70.3671875 93.14453125 C70.09040476 86.6969128 68.19968869 81.62231012 65 76 C64.34 76 63.68 76 63 76 C62.67 75.01 62.34 74.02 62 73 C61.34 73 60.68 73 60 73 C60 72.34 60 71.68 60 71 C53.6140999 65.96169479 46.8962504 62.79849521 39 61 C39 60.34 39 59.68 39 59 C39.86625 58.938125 40.7325 58.87625 41.625 58.8125 C45.84929901 57.79553913 48.3710975 56.39713406 51 53 C56.34596294 43.31833483 57.46049657 33.32353796 55.55859375 22.484375 C53.97888398 17.27828747 50.54608485 13.77178766 46 11 C38.04992878 7.99861207 38.04992878 7.99861207 21 9 Z " fill="#000000" transform="translate(308,7)"/>
<path d="M0 0 C7.4025388 6.5228168 13.22995791 15.70620107 16.875 24.8125 C17.34035156 25.92882813 17.80570312 27.04515625 18.28515625 28.1953125 C25.46792282 47.36822847 24.46737256 71.10928037 16.03027344 89.67089844 C7.96630802 106.61147696 -4.96778539 118.49072781 -22.50463867 124.94873047 C-38.18151767 130.47856865 -56.70256133 129.41814688 -71.63696289 122.29321289 C-86.53801135 114.94911078 -99.09099018 102.66868724 -105.125 86.8125 C-111.926292 66.28673705 -113.17100771 42.48350854 -103.55078125 22.55078125 C-100.46749128 16.68517322 -97.31556002 10.96090231 -93.125 5.8125 C-92.465 5.8125 -91.805 5.8125 -91.125 5.8125 C-90.88265625 5.23113281 -90.6403125 4.64976563 -90.390625 4.05078125 C-85.04582686 -5.40159323 -71.46817884 -11.19997063 -61.609375 -14.2890625 C-38.15971447 -19.91487792 -19.08662454 -13.36063718 0 0 Z M-75.8125 8.75 C-78.87383214 12.93575508 -80.92939072 17.4334911 -82.9375 22.1875 C-83.22778076 22.87062256 -83.51806152 23.55374512 -83.81713867 24.25756836 C-87.9620376 34.66934898 -88.4665421 45.08180105 -88.4375 56.1875 C-88.45361328 57.41210938 -88.46972656 58.63671875 -88.48632812 59.8984375 C-88.49558029 77.36652968 -83.51139215 94.95463222 -71.5 108.0625 C-62.4775222 116.64953003 -52.09253673 119.33146553 -40.01953125 119.0859375 C-30.6290722 118.42662744 -22.77609311 114.48001556 -16.125 107.8125 C-16.125 107.1525 -16.125 106.4925 -16.125 105.8125 C-15.465 105.8125 -14.805 105.8125 -14.125 105.8125 C0.07515517 88.15825303 2.23709705 65.6945006 0.875 43.8125 C-1.25205835 27.06777191 -7.76111657 10.66473158 -21.125 -0.1875 C-40.29958684 -12.21741595 -61.01917107 -8.17540516 -75.8125 8.75 Z " fill="#000000" transform="translate(237.125,20.1875)"/>
<path d="M0 0 C1.16047852 -0.0100708 2.32095703 -0.0201416 3.51660156 -0.03051758 C10.02110888 0.03523633 16.46872207 0.13850342 22.25 3.4375 C24.6953125 6.25 24.6953125 6.25 26.375 9.4375 C27.24511719 11.0153125 27.24511719 11.0153125 28.1328125 12.625 C29.25 15.4375 29.25 15.4375 28.25 18.4375 C26.88875 17.57125 26.88875 17.57125 25.5 16.6875 C14.58826164 10.53047494 2.19898423 7.87335132 -10.125 10.5625 C-16.77980134 12.5141062 -21.12720864 14.7497518 -24.75 20.75 C-26.18452958 26.03982781 -26.04405527 29.81254804 -23.65234375 34.6640625 C-18.16923435 43.5531145 -10.32052922 49.31902435 -1.5390625 54.69921875 C2.16393877 57.0071117 5.70321757 59.52091606 9.25390625 62.0546875 C11.19436105 63.46873198 11.19436105 63.46873198 13.25 64.4375 C13.25 65.0975 13.25 65.7575 13.25 66.4375 C13.97574219 66.6953125 14.70148437 66.953125 15.44921875 67.21875 C18.37047667 68.48992499 20.55872649 69.97766402 23.0625 71.9375 C23.85269531 72.5459375 24.64289063 73.154375 25.45703125 73.78125 C26.04871094 74.3278125 26.64039062 74.874375 27.25 75.4375 C27.25 76.0975 27.25 76.7575 27.25 77.4375 C27.91 77.4375 28.57 77.4375 29.25 77.4375 C29.25 78.0975 29.25 78.7575 29.25 79.4375 C30.735 79.9325 30.735 79.9325 32.25 80.4375 C32.25 81.0975 32.25 81.7575 32.25 82.4375 C32.91 82.4375 33.57 82.4375 34.25 82.4375 C35.90625 84.66796875 35.90625 84.66796875 37.75 87.625 C38.3584375 88.58792969 38.966875 89.55085938 39.59375 90.54296875 C44.78518401 99.61573432 45.81853998 110.57105407 43.4375 120.75 C41.35414808 127.21935597 39.5424939 131.95923593 34.25 136.4375 C33.59 136.4375 32.93 136.4375 32.25 136.4375 C32.25 137.0975 32.25 137.7575 32.25 138.4375 C13.72882335 148.43783946 -6.40707381 152.31107018 -27.15625 146.33203125 C-28.0121875 146.03683594 -28.868125 145.74164063 -29.75 145.4375 C-30.5234375 145.19386719 -31.296875 144.95023438 -32.09375 144.69921875 C-38.41457622 142.21098306 -40.7255866 137.22760117 -43.75 131.4375 C-44.32105469 130.56996094 -44.89210937 129.70242187 -45.48046875 128.80859375 C-45.89941406 128.02613281 -46.31835938 127.24367188 -46.75 126.4375 C-46.42 125.4475 -46.09 124.4575 -45.75 123.4375 C-45.1209375 123.89640625 -44.491875 124.3553125 -43.84375 124.828125 C-38.66821077 128.53830071 -33.65630589 132.01892483 -27.75 134.4375 C-26.84121094 134.81003906 -25.93242187 135.18257812 -24.99609375 135.56640625 C-13.22848413 139.79331984 0.4821697 140.70006186 12.1171875 135.55859375 C17.6545198 132.64794472 20.2134794 129.69058028 22.515625 123.92578125 C24.46886601 117.30761887 23.88706915 112.14913831 20.8125 106 C20.36003906 105.19691406 19.90757813 104.39382812 19.44140625 103.56640625 C18.25 101.4375 18.25 101.4375 17.25 98.4375 C16.59 98.4375 15.93 98.4375 15.25 98.4375 C13.56267723 96.45489574 11.89633943 94.4542658 10.25 92.4375 C9.26 91.9425 9.26 91.9425 8.25 91.4375 C8.25 90.7775 8.25 90.1175 8.25 89.4375 C7.6727417 89.16510498 7.0954834 88.89270996 6.50073242 88.61206055 C4.25299068 87.43906071 2.29029276 86.13101044 0.23828125 84.64453125 C-0.51509521 84.10022461 -1.26847168 83.55591797 -2.04467773 82.99511719 C-2.83430908 82.41922852 -3.62394043 81.84333984 -4.4375 81.25 C-5.24968994 80.65993164 -6.06187988 80.06986328 -6.89868164 79.46191406 C-12.26374383 75.55201244 -17.5714024 71.59208113 -22.75 67.4375 C-24.10158203 66.39722656 -24.10158203 66.39722656 -25.48046875 65.3359375 C-36.01483811 57.06197938 -41.86726025 49.72917431 -44.75 36.4375 C-45.55872436 28.3502564 -43.83342976 20.82809742 -38.75 14.4375 C-27.69147161 2.18345503 -15.87153565 0.09063965 0 0 Z " fill="#000000" transform="translate(46.75,-0.4375)"/>
<path d="M0 0 C3 1 3 1 4.66650391 4.25268555 C5.28117411 5.70930584 5.88363755 7.17111234 6.4765625 8.63671875 C6.8033902 9.41986954 7.1302179 10.20302032 7.46694946 11.00990295 C8.53016415 13.56487824 9.57769085 16.12596877 10.625 18.6875 C11.34901283 20.43625443 12.07394911 22.18462682 12.79980469 23.93261719 C14.56620292 28.19371002 16.32017114 32.45976843 18.06872559 36.72821045 C19.34556609 39.84298829 20.62997606 42.95460891 21.9140625 46.06640625 C23.96003299 51.0373417 25.99131682 56.01388002 28 61 C28.49415405 62.22601929 28.49415405 62.22601929 28.99829102 63.47680664 C30.89932867 68.2100859 32.76071008 72.95635434 34.58618164 77.71923828 C37.11308871 84.30354503 39.74973901 90.76691986 42.75 97.15234375 C44.34136029 100.77766141 45.70016636 104.47123389 47.0625 108.1875 C48.79800514 112.92134164 50.62966061 117.47901035 52.98828125 121.9375 C56.17718322 128.43842757 59 134.72209569 59 142 C52.07 142 45.14 142 38 142 C34.87911748 136.0183085 32.25295853 130.15904899 30.03515625 123.79296875 C28.65037914 120.05668334 26.97264662 116.48740313 25.24609375 112.8984375 C23.58284673 109.02969364 22.3316745 104.99502349 21 101 C3.84 101.33 -13.32 101.66 -31 102 C-36.22333163 114.7887948 -36.22333163 114.7887948 -41.44116211 127.57983398 C-42.0946891 129.17700251 -42.74840333 130.77409445 -43.40234375 132.37109375 C-43.74269653 133.20805786 -44.08304932 134.04502197 -44.43371582 134.90734863 C-44.75843872 135.69903442 -45.08316162 136.49072021 -45.41772461 137.30639648 C-45.69974228 137.99700668 -45.98175995 138.68761688 -46.27232361 139.39915466 C-47 141 -47 141 -48 142 C-49.51928038 142.07179964 -51.04167482 142.08392007 -52.5625 142.0625 C-53.38878906 142.05347656 -54.21507812 142.04445312 -55.06640625 142.03515625 C-55.70449219 142.02355469 -56.34257813 142.01195312 -57 142 C-55.17456342 135.37587785 -52.91878005 129.21489288 -50 123 C-47.38742839 117.40319386 -45.13127373 111.73119588 -43 105.9375 C-39.94823304 97.6448193 -39.94823304 97.6448193 -38 94 C-35.6705115 89.63100083 -34.05189738 84.98129418 -32.36914062 80.3359375 C-30.3607143 74.82521404 -28.11821689 69.42684901 -25.84634399 64.0201416 C-22.8198988 56.7963084 -19.83114923 49.55663033 -16.8347168 42.3203125 C-15.98936711 40.28018245 -15.1430194 38.24046565 -14.2956543 36.20117188 C-9.31370813 24.2097096 -4.44128077 12.2032491 0 0 Z M-6 38 C-6.24645264 38.63389648 -6.49290527 39.26779297 -6.74682617 39.92089844 C-11.05580437 50.99451988 -15.37264956 62.05481196 -20 73 C-21.27750131 76.03891533 -22.54654211 79.08126016 -23.8125 82.125 C-24.12719238 82.87313965 -24.44188477 83.6212793 -24.76611328 84.39208984 C-26.41548687 88.07074915 -26.41548687 88.07074915 -27 92 C-12.48 92 2.04 92 17 92 C14.56266968 83.77422129 14.56266968 83.77422129 11.1640625 76.4453125 C9.58390162 73.12591414 8.33035067 69.69710714 7.0625 66.25 C3.50716655 56.60284481 -0.25724979 47.13418559 -5 38 C-5.33 38 -5.66 38 -6 38 Z " fill="#000000" transform="translate(665,4)"/>
<path d="M0 0 C3.361875 -0.0825 6.72375 -0.165 10.1875 -0.25 C11.23832764 -0.28641602 12.28915527 -0.32283203 13.37182617 -0.36035156 C17.64867697 -0.41120299 20.32323791 -0.37607305 24.12109375 1.734375 C26.15720458 4.18956062 26.69193309 5.35555668 26.875 8.5 C26.93429687 9.2528125 26.99359375 10.005625 27.0546875 10.78125 C26.99984119 13.00644324 26.62891754 14.87135603 26 17 C25.34 17 24.68 17 24 17 C24 17.66 24 18.32 24 19 C23.34 19.33 22.68 19.66 22 20 C22.42925781 20.85851562 22.42925781 20.85851562 22.8671875 21.734375 C24.578125 25.15625 26.2890625 28.578125 28 32 C25.03 32 22.06 32 19 32 C17.53515625 29.41210938 17.53515625 29.41210938 16.0703125 26.82421875 C15.10571419 25.18017711 14.05732941 23.58599412 13 22 C9.93443402 21.26656572 9.93443402 21.26656572 7 21 C7 24.63 7 28.26 7 32 C4.69 32 2.38 32 0 32 C0 21.44 0 10.88 0 0 Z M7 6 C7 8.97 7 11.94 7 15 C8.423125 15.020625 9.84625 15.04125 11.3125 15.0625 C12.11300781 15.07410156 12.91351563 15.08570313 13.73828125 15.09765625 C16.16861334 15.09657855 16.16861334 15.09657855 19 14 C19 11.69 19 9.38 19 7 C16.47524538 5.73762269 14.68799534 5.90143596 11.875 5.9375 C10.96492188 5.94652344 10.05484375 5.95554688 9.1171875 5.96484375 C8.06917969 5.98224609 8.06917969 5.98224609 7 6 Z " fill="#000000" transform="translate(256,207)"/>
<path d="M0 0 C8.25 0 16.5 0 25 0 C25 1.98 25 3.96 25 6 C19.06 6 13.12 6 7 6 C7 8.31 7 10.62 7 13 C11.62 13 16.24 13 21 13 C21 14.98 21 16.96 21 19 C16.38 19 11.76 19 7 19 C7 21.31 7 23.62 7 26 C12.94 26 18.88 26 25 26 C25 27.98 25 29.96 25 32 C16.75 32 8.5 32 0 32 C0 21.44 0 10.88 0 0 Z " fill="#000000" transform="translate(297,207)"/>
<path d="M0 0 C2.05078125 0.03255208 4.1015625 0.06510417 6.15234375 0.09765625 C6.45527344 0.896875 6.75820313 1.69609375 7.0703125 2.51953125 C9.24110559 8.21034883 11.45584724 13.86742636 13.83984375 19.47265625 C15.59852618 23.64261395 17.05526381 27.70933648 18.15234375 32.09765625 C15.51234375 32.09765625 12.87234375 32.09765625 10.15234375 32.09765625 C9.49234375 30.44765625 8.83234375 28.79765625 8.15234375 27.09765625 C3.86234375 26.76765625 -0.42765625 26.43765625 -4.84765625 26.09765625 C-5.50765625 28.07765625 -6.16765625 30.05765625 -6.84765625 32.09765625 C-9.15765625 32.09765625 -11.46765625 32.09765625 -13.84765625 32.09765625 C-13.21247463 26.73294661 -11.46934032 22.13123953 -9.47265625 17.16015625 C-9.01632812 16.0009668 -9.01632812 16.0009668 -8.55078125 14.81835938 C-2.74598994 0.14513689 -2.74598994 0.14513689 0 0 Z M1.15234375 9.09765625 C0.65734375 10.17015625 0.16234375 11.24265625 -0.34765625 12.34765625 C-0.62609375 12.9509375 -0.90453125 13.55421875 -1.19140625 14.17578125 C-2.06308549 16.39008461 -2.06308549 16.39008461 -1.84765625 20.09765625 C0.46234375 20.09765625 2.77234375 20.09765625 5.15234375 20.09765625 C4.60128466 16.14839945 3.76299004 12.74845451 2.15234375 9.09765625 C1.82234375 9.09765625 1.49234375 9.09765625 1.15234375 9.09765625 Z " fill="#000000" transform="translate(344.84765625,206.90234375)"/>
<path d="M0 0 C5.02072539 -1.05699482 5.02072539 -1.05699482 8 0 C10.90802029 3.71791753 12.97519248 7.7479042 15 12 C15.763125 10.948125 16.52625 9.89625 17.3125 8.8125 C18.00859375 7.86117187 18.00859375 7.86117187 18.71875 6.890625 C20.14554475 4.90363179 20.14554475 4.90363179 21.3125 2.0625 C23 0 23 0 24.9609375 -0.3046875 C26.97650635 -0.31175967 28.99115578 -0.16465936 31 0 C28.75923697 4.75041763 26.36232067 8.9077105 23.3125 13.1875 C19.3251901 19.25366378 18.92061385 24.86658728 19 32 C16.36 32 13.72 32 11 32 C11.03222656 31.23558594 11.06445312 30.47117188 11.09765625 29.68359375 C10.99661199 20.35384024 8.0458289 14.74228949 3.03125 7.21484375 C1.32160283 4.50899833 0.62299683 3.00449191 0 0 Z " fill="#000000" transform="translate(441,207)"/>
<path d="M0 0 C9.57 0 19.14 0 29 0 C29 2.31 29 4.62 29 7 C25.7 7 22.4 7 19 7 C18.67 15.25 18.34 23.5 18 32 C15.69 32 13.38 32 11 32 C10.67 23.75 10.34 15.5 10 7 C7.03 7 4.06 7 1 7 C0.67 6.67 0.34 6.34 0 6 C0 4.02 0 2.04 0 0 Z " fill="#000000" transform="translate(403,207)"/>
<path d="M0 0 C2.31 0 4.62 0 7 0 C7 8.58 7 17.16 7 26 C12.28 26 17.56 26 23 26 C23 27.98 23 29.96 23 32 C15.41 32 7.82 32 0 32 C0 21.44 0 10.88 0 0 Z " fill="#000000" transform="translate(375,207)"/>
</svg>
