<?xml version="1.0" encoding="utf-8"?>
<!-- Generator: Adobe Illustrator 19.0.0, SVG Export Plug-In . SVG Version: 6.00 Build 0)  -->
<svg version="1.1" id="Layer_1" xmlns="http://www.w3.org/2000/svg" xmlns:xlink="http://www.w3.org/1999/xlink" x="0px" y="0px"
	 viewBox="0 0 433 271" style="enable-background:new 0 0 433 271;" xml:space="preserve">
<style type="text/css">
	.Arched_x0020_Green{fill:url(#SVGID_1_);stroke:#FFFFFF;stroke-width:0.25;stroke-miterlimit:1;}
	.st0{fill:none;}
</style>
<linearGradient id="SVGID_1_" gradientUnits="userSpaceOnUse" x1="-383.5" y1="735.5233" x2="-382.7929" y2="734.8162">
	<stop  offset="0" style="stop-color:#20AC4B"/>
	<stop  offset="0.9831" style="stop-color:#19361A"/>
</linearGradient>
<rect x="0.5" y="0.5" class="st0" width="432" height="270"/>
<g>
	<path d="M58.3,228.9c-0.5-0.8-1.1-1.3-1.9-1.8c-1.1-0.5-2-0.7-3-0.5c-0.9,0.1-1.6,0.5-2.2,1.1c-0.6,0.6-0.9,1.3-1,2.2
		c-0.1,0.6,0,1.2,0.3,1.6c0.2,0.5,0.6,1,1.2,1.5c0.5,0.3,1,0.6,1.4,0.8c0.7,0.3,1.3,0.5,2,0.7c0.9,0.3,1.8,0.5,2.8,0.9
		c1.1,0.4,2.1,1,3.1,1.8c1.5,1.2,2.6,2.6,3.4,4.2c0.8,1.8,1.1,3.4,0.9,5.2c-0.3,2.6-1.3,4.8-3,6.7c-1.6,1.8-3.9,3-6.6,3.3
		c-2.4,0.3-4.9,0-7.2-1.1c-2.1-1-4.1-2.6-5.3-4.9c-0.4-0.7-0.6-1.3-0.9-2c-0.2-0.6-0.3-1.3-0.5-2.2l6.7-0.9c0.1,0.5,0.2,0.8,0.3,1
		c0.1,0.2,0.1,0.5,0.3,0.9c0.6,1,1.3,1.7,2.2,2.1c1.1,0.5,2.4,0.7,3.5,0.5c1.1-0.2,1.8-0.6,2.6-1.3c0.7-0.7,1.1-1.5,1.2-2.6
		c0-0.7-0.1-1.3-0.3-1.9c-0.3-0.6-0.7-1.3-1.4-1.7c-0.4-0.5-0.9-0.7-1.4-0.9c-0.7-0.3-1.3-0.5-2-0.7c-1-0.2-1.9-0.5-2.8-0.9
		c-1.1-0.4-2.1-1.1-3.2-1.8c-1.5-1.2-2.4-2.4-3.1-4c-0.7-1.6-1.1-3.3-0.9-4.9c0.2-2.3,1.3-4.5,2.9-6.3c1.6-1.6,3.6-2.8,6.2-3.1
		c2.3-0.3,4.7,0.1,6.8,1.1c2,1,3.7,2.5,4.9,4.7L58.3,228.9z M58.3,228.9l5.9-3.2L58.3,228.9z"/>
	<path d="M83.9,220.2v14.5l10.2-14.5h8.2l-13,18.6l14,18.2h-8.5l-9.6-12.4l-1.3,1.8V257h-6.7v-36.8H83.9z M77.2,220.2h6.7H77.2z"/>
	<path d="M132.8,243.3V257H126v-13.3l-11.1-23.5h7.4l7,14.7l6.9-14.7h7.4L132.8,243.3z M132.8,243.3l10.9-23.1L132.8,243.3z"/>
	<path d="M154.8,257l10.5-29.6l2.7-7.6l3.5,7.2l7.8,16.3l7.9-16.3l3.5-7.2l2.7,7.6l10.5,29.6h-7.1l-7.1-19.8L179.3,257l-10.4-19.8
		l-7,19.8H154.8z M154.8,257h7.1H154.8z"/>
	<path d="M240.4,248.5h-13l-4,8.4H216l14.6-30.8l3-6.4l3.1,6.3l15.2,30.9h-7.4L240.4,248.5z M230.4,242.2h6.9l-3.5-7.2L230.4,242.2z
		 M233.7,235l-3.4,7.2L233.7,235z"/>
	<path d="M269.9,220.2v14.5l10.2-14.5h8.2l-13,18.6l14,18.2h-8.5l-9.6-12.4l-1.3,1.8V257h-6.7v-36.8H269.9z M263.2,220.2h6.7H263.2z
		"/>
	<path d="M307.6,235.2h10v6.7h-10v8.2H321v6.8h-20.2v-37.2H321v6.7h-13.4V235.2z M307.6,226.5v8.7V226.5z"/>
	<path d="M356.4,257h-7.8l-7.5-12.6h-1V257h-6.7v-37.1h6.7v0.1h3.2c3.4,0,6.4,1.3,8.6,3.6c2.2,2.4,3.6,5.3,3.6,8.6
		c0,3.4-1.3,6.5-3.6,8.6c-1.1,1.1-2.3,1.9-3.6,2.5L356.4,257z M340.1,237.6h3.2c1.5,0,2.8-0.5,3.9-1.6c1.1-1.1,1.6-2.4,1.6-3.9
		c0-1.4-0.5-2.8-1.6-3.9c-1.1-1.1-2.4-1.6-3.9-1.6h-3.2V237.6z"/>
	<path d="M384.1,228.9c-0.5-0.8-1.1-1.3-1.9-1.8c-1.1-0.5-2-0.7-3-0.5c-0.9,0.1-1.6,0.5-2.2,1.1c-0.6,0.6-0.9,1.3-1,2.2
		c-0.1,0.6,0,1.2,0.3,1.6c0.2,0.5,0.6,1,1.2,1.5c0.5,0.3,1,0.6,1.4,0.8c0.7,0.3,1.3,0.5,2,0.7c0.9,0.3,1.8,0.5,2.8,0.9
		c1.1,0.4,2.1,1,3.1,1.8c1.5,1.2,2.6,2.6,3.4,4.2c0.8,1.8,1.1,3.4,0.9,5.2c-0.3,2.6-1.3,4.8-3,6.7c-1.6,1.8-3.9,3-6.6,3.3
		c-2.4,0.3-4.9,0-7.2-1.1c-2.1-1-4.1-2.6-5.3-4.9c-0.4-0.7-0.6-1.3-0.9-2c-0.2-0.6-0.3-1.3-0.5-2.2l6.7-0.9c0.1,0.5,0.2,0.8,0.3,1
		c0.1,0.2,0.1,0.5,0.3,0.9c0.6,1,1.3,1.7,2.2,2.1c1.1,0.5,2.4,0.7,3.5,0.5c1.1-0.2,1.8-0.6,2.6-1.3c0.7-0.7,1.1-1.5,1.2-2.6
		c0-0.7-0.1-1.3-0.3-1.9c-0.3-0.6-0.7-1.3-1.4-1.7c-0.4-0.5-0.9-0.7-1.4-0.9c-0.7-0.3-1.3-0.5-2-0.7c-1-0.2-1.9-0.5-2.8-0.9
		c-1.1-0.4-2.1-1.1-3.2-1.8c-1.4-1.2-2.4-2.4-3.1-4c-0.7-1.6-1.1-3.3-0.9-4.9c0.2-2.3,1.3-4.5,2.9-6.3c1.6-1.6,3.6-2.8,6.2-3.1
		c2.3-0.3,4.7,0.1,6.8,1.1c2,1,3.7,2.5,4.9,4.7L384.1,228.9z M384.1,228.9l5.9-3.2L384.1,228.9z"/>
</g>
<g>
	<g>
		<path d="M221.5,118.1h-40.5c4.5-21.9,13.6-45.7,31.1-67.9v31.1h9.4V14.1L215.2,30v13.8c-8.2,5.3-48.8,34.2-55.5,91.4h18.7
			c0,0,0,0,0,0h33.7v49h-32.8c-0.5-3.5-1-7.7-1.4-12.4h-17.8c0.9,6.9,2.3,14.1,4.2,21.6h0.6h16h31.1h4.5h4.9h0.1v-9.2h-0.1V118.1z"
			/>
	</g>
	<polygon points="240.7,191.9 230.8,191.9 230.8,61.2 240.7,73.2 	"/>
	<polygon points="256.7,191.9 248,191.9 248,106.3 256.7,118.3 	"/>
	<polygon points="273.3,191.7 273.3,148.4 264.5,136.3 264.5,191.7 	"/>
</g>
</svg>
