<?xml version="1.0" encoding="utf-8"?>
<!-- Generator: Adobe Illustrator 19.0.0, SVG Export Plug-In . SVG Version: 6.00 Build 0)  -->
<svg version="1.1" id="Layer_1" xmlns="http://www.w3.org/2000/svg" xmlns:xlink="http://www.w3.org/1999/xlink" x="0px" y="0px"
	 viewBox="0 0 433 271" style="enable-background:new 0 0 433 271;" xml:space="preserve">
<style type="text/css">
	.Arched_x0020_Green{fill:url(#SVGID_1_);stroke:#FFFFFF;stroke-width:0.25;stroke-miterlimit:1;}
	.st0{fill:none;}
</style>
<linearGradient id="SVGID_1_" gradientUnits="userSpaceOnUse" x1="-383.5" y1="735.5233" x2="-382.7929" y2="734.8162">
	<stop  offset="0" style="stop-color:#20AC4B"/>
	<stop  offset="0.9831" style="stop-color:#19361A"/>
</linearGradient>
<rect x="0.5" y="0.5" class="st0" width="432" height="270"/>
<g>
	<g>
		<path d="M221.5,118.1h-40.5c4.5-21.9,13.6-45.7,31.1-67.9v31.1h9.4V14.1L215.2,30v13.8c-8.2,5.3-48.8,34.2-55.5,91.4h18.7
			c0,0,0,0,0,0h33.7v49h-32.8c-0.5-3.5-1-7.7-1.4-12.4h-17.8c0.9,6.9,2.3,14.1,4.2,21.6h0.6h16h31.1h4.5h4.9h0.1v-9.2h-0.1V118.1z"
			/>
	</g>
	<polygon points="240.7,191.9 230.8,191.9 230.8,61.2 240.7,73.2 	"/>
	<polygon points="256.7,191.9 248,191.9 248,106.3 256.7,118.3 	"/>
	<polygon points="273.3,191.7 273.3,148.4 264.5,136.3 264.5,191.7 	"/>
</g>
</svg>
